<svg width="201" height="144" viewBox="0 0 201 144" fill="none" xmlns="http://www.w3.org/2000/svg">
<path d="M200.53 0.130005L178.31 35.8799L156.2 0.130005H200.53Z" fill="#A842F9"/>
<path d="M178.38 35.8899L156.16 0.140015L134.05 35.8899H178.38Z" fill="#63179F"/>
<path d="M89.56 35.8701L67.34 0.119995L45.23 35.8701H89.56Z" fill="#63179F"/>
<path d="M67.43 71.6299L45.21 35.8799L23.1 71.6299H67.43Z" fill="#63179F"/>
<path d="M45.25 35.8799L22.76 0.109985L0.410034 35.8799H45.25Z" fill="#63179F"/>
<path d="M155.97 143.11L133.75 107.37L111.52 143.11H155.97Z" fill="#63179F"/>
<path d="M133.76 107.36L111.54 71.6101L89.4299 107.36H133.76Z" fill="#63179F"/>
<path d="M89.43 107.36L67.32 71.6201L45.21 107.37L89.43 107.36Z" fill="#63179F"/>
<path d="M178.07 107.36L155.85 71.6101L133.74 107.36H178.07Z" fill="#63179F"/>
<path d="M156.15 71.6101L133.93 35.8601L111.82 71.6101H156.15Z" fill="#63179F"/>
<path d="M111.63 143.11L89.42 107.36L67.2 143.1L111.63 143.11Z" fill="#63179F"/>
<path d="M200.18 71.6101L177.96 107.36L155.85 71.6101H200.18Z" fill="#A842F9"/>
<path d="M155.97 71.6201L133.75 107.37L111.64 71.6201H155.97Z" fill="#A842F9"/>
<path d="M178.36 35.8601L156.14 71.6101L134.03 35.8601H178.36Z" fill="#A842F9"/>
<path d="M89.54 35.8799L67.31 71.6299L45.21 35.8799H89.54Z" fill="#A842F9"/>
<path d="M67.32 71.6299L45.1 107.38L22.99 71.6299H67.32Z" fill="#A842F9"/>
<path d="M67.34 0.119995L45.23 35.8701L22.76 0.109985L67.34 0.119995Z" fill="#A842F9"/>
<path d="M111.64 71.6299L89.4301 107.38L67.3201 71.6299H111.64Z" fill="#A842F9"/>
<path d="M89.42 107.36L67.2 143.11L45.09 107.36H89.42Z" fill="#A842F9"/>
<path d="M133.74 107.36L111.52 143.11L89.42 107.36H133.74Z" fill="#A842F9"/>
<path d="M178.07 107.37L155.97 143.11L133.75 107.37H178.07Z" fill="#A842F9"/>
</svg>
