<svg width="90" height="179" viewBox="0 0 90 179" fill="none" xmlns="http://www.w3.org/2000/svg">
<path d="M89.52 72.01L67.24 36.3899L45.07 72.01H89.52Z" fill="#1C35C6"/>
<path d="M67.24 36.3999L44.97 0.780029L22.8 36.3999H67.24Z" fill="#1C35C6"/>
<path d="M67.33 107.65L45.05 72.03L22.89 107.65H67.33Z" fill="#1C35C6"/>
<path d="M45.09 72.02L22.81 36.3999L0.650024 72.02H45.09Z" fill="#1C35C6"/>
<path d="M67.25 178.87L44.98 143.25L22.81 178.87H67.25Z" fill="#1C35C6"/>
<path d="M89.5 72.03L67.22 107.65L45.05 72.03H89.5Z" fill="#007BED"/>
<path d="M67.22 107.64L44.94 143.27L22.78 107.64H67.22Z" fill="#007BED"/>
<path d="M67.22 36.45L44.94 72.0701L22.78 36.45H67.22Z" fill="#007BED"/>
<path d="M45.07 72.02L22.79 107.64L0.619995 72.02H45.07Z" fill="#007BED"/>
</svg>
