<svg width="1440" height="2981" viewBox="0 0 1440 2981" fill="none" xmlns="http://www.w3.org/2000/svg">
<g clip-path="url(#clip0_77_2379)">
<path d="M587.61 747.19L521.1 853.99L454.28 747.19H587.61Z" fill="#33AF00"/>
<path d="M654.4 853.99L587.6 747.19L521.06 853.99H654.4Z" fill="#006602"/>
<path d="M787.41 854.05L720.94 747.21L654.4 854.01L787.41 854.05Z" fill="#006602"/>
<path d="M787.41 640.38L720.62 533.58L654.08 640.38H787.41Z" fill="#006602"/>
<path d="M921.07 854.06L854.25 747.17L787.41 854.06H921.07Z" fill="#006602"/>
<path d="M854.26 747.19L787.47 640.39L720.93 747.19H854.26Z" fill="#006602"/>
<path d="M1188.16 1281.25L1121.37 1174.44L1054.83 1281.25H1188.16Z" fill="#006602"/>
<path d="M720.98 747.14L654.18 853.95L587.37 747.14H720.98Z" fill="#33AF00"/>
<path d="M854.25 747.17L787.41 854.05L720.87 747.2L854.25 747.17Z" fill="#33AF00"/>
<path d="M987.9 747.17L921.07 854.05L854.52 747.2L987.9 747.17Z" fill="#33AF00"/>
<path d="M854.23 960.85L787.41 854.05L720.45 960.87L854.23 960.85Z" fill="#006602"/>
<path d="M854.09 960.87L787.35 1067.71L720.47 960.87H854.09Z" fill="#33AF00"/>
<path d="M921.03 854.05L854.23 960.85L787.41 854.05H921.03Z" fill="#33AF00"/>
<path d="M787.47 640.39L720.94 747.19L654.12 640.39H787.47Z" fill="#33AF00"/>
<path d="M787.41 854.05L720.47 960.87L654.06 854.03L787.41 854.05Z" fill="#33AF00"/>
<path d="M787.48 1067.74L720.36 960.86L653.58 1068.15L787.48 1067.74Z" fill="#006602"/>
<path d="M787.36 1067.71L720.75 1173.79L653.58 1068.15L787.36 1067.71Z" fill="#33AF00"/>
<path d="M787.95 1281.29L720.74 1173.79L653.89 1281L787.95 1281.29Z" fill="#006602"/>
<path d="M787.63 1280.96L720.9 1387.88L653.89 1281L787.63 1280.96Z" fill="#33AF00"/>
<path d="M1054.57 1067.65L987.78 1174.45L920.96 1067.65H1054.57Z" fill="#33AF00"/>
<path d="M653.58 1068.15L587.22 960.85L520.64 1067.68L653.58 1068.15Z" fill="#006602"/>
<path d="M653.58 1068.15L586.99 1174.31L520.48 1067.52L653.58 1068.15Z" fill="#33AF00"/>
<path d="M720.47 960.88L654.06 854.03L587.22 960.85L720.47 960.88Z" fill="#006602"/>
<path d="M720.34 960.92L653.58 1068.15L586.86 960.87L720.34 960.92Z" fill="#33AF00"/>
<path d="M587.42 960.87L520.69 1067.71L453.81 960.87H587.42Z" fill="#33AF00"/>
<path d="M520.81 1067.74L453.69 960.86L386.91 1068.15L520.81 1067.74Z" fill="#006602"/>
<path d="M453.67 960.92L386.91 1068.15L320.19 960.87L453.67 960.92Z" fill="#33AF00"/>
<path d="M720.92 1173.82L653.61 1068.09L586.99 1174.31L720.92 1173.82Z" fill="#006602"/>
<path d="M520.73 1067.59L453.57 1174.41L386.75 1067.61L520.73 1067.59Z" fill="#33AF00"/>
<path d="M520.37 1281.23L453.57 1388.03L386.75 1281.23H520.37Z" fill="#33AF00"/>
<path d="M587.06 1174.32L520.54 1067.6L453.32 1174.4L587.06 1174.32Z" fill="#006602"/>
<path d="M987.7 960.85L921.13 1067.65L854.09 960.85H987.7Z" fill="#33AF00"/>
<path d="M921.15 1067.67L854.09 960.73L787.36 1067.65L921.15 1067.67Z" fill="#006602"/>
<path d="M1121.3 960.85L1054.5 1067.65L987.68 960.85H1121.3Z" fill="#33AF00"/>
<path d="M1054.5 1067.67L987.7 960.87L921.07 1067.65L1054.5 1067.67Z" fill="#006602"/>
<path d="M921.13 1067.65L854.18 1174.45L787.36 1067.65H921.13Z" fill="#33AF00"/>
<path d="M1121.39 1174.44L1054.6 1281.25L987.78 1174.44H1121.39Z" fill="#33AF00"/>
<path d="M1254.91 1174.44L1188.11 1281.25L1121.29 1174.44H1254.91Z" fill="#33AF00"/>
<path d="M1055.56 1494.69L988.33 1387.87L921.79 1494.67L1055.56 1494.69Z" fill="#006602"/>
<path d="M1055.92 1494.63L988.21 1601.43L921.39 1494.63H1055.92Z" fill="#33AF00"/>
<path d="M1189.62 1495.07L1121.72 1601.39L1054.9 1494.59L1189.62 1495.07Z" fill="#33AF00"/>
<path d="M854.06 1173.71L787.66 1066.95L720.71 1173.83L854.06 1173.71Z" fill="#006602"/>
<path d="M653.98 1281.23L587 1174.29L520.37 1281.23H653.98Z" fill="#006602"/>
<path d="M520.38 1281.23L453.59 1174.43L387.05 1281.23H520.38Z" fill="#006602"/>
<path d="M653.98 1281.23L587.18 1388.02L520.36 1281.22L653.98 1281.23Z" fill="#33AF00"/>
<path d="M587.16 1388.03L520.37 1281.23L453.43 1388.1L587.16 1388.03Z" fill="#006602"/>
<path d="M720.9 1387.88L653.9 1281.02L587.05 1387.99L720.9 1387.88Z" fill="#006602"/>
<path d="M720.9 1387.87L653.75 1494.81L586.68 1387.76L720.9 1387.87Z" fill="#33AF00"/>
<path d="M520.42 1494.8L453.63 1601.6L387.09 1494.8H520.42Z" fill="#33AF00"/>
<path d="M386.94 1494.8L321.56 1601.6L255.02 1494.8H386.94Z" fill="#33AF00"/>
<path d="M386.99 1281.21L320.2 1388.02L253.38 1281.21H386.99Z" fill="#33AF00"/>
<path d="M453.77 1388L386.98 1281.2L320.04 1388.07L453.77 1388Z" fill="#006602"/>
<path d="M453.77 1388L387.09 1494.8L320.27 1388H453.77Z" fill="#33AF00"/>
<path d="M787.69 1494.67L720.9 1387.87L653.75 1494.81L787.69 1494.67Z" fill="#006602"/>
<path d="M1255.97 1387.86L1189.49 1495.23L1121.22 1387.79L1255.97 1387.86Z" fill="#33AF00"/>
<path d="M1121.26 1387.8L1055.21 1494.52L987.64 1387.8H1121.26Z" fill="#33AF00"/>
<path d="M1189.49 1495.23L1121.26 1387.8L1054.23 1494.62L1189.49 1495.23Z" fill="#006602"/>
<path d="M921.21 1280.97L854.41 1387.77L787.59 1280.97H921.21Z" fill="#33AF00"/>
<path d="M854.52 1387.88L787.69 1494.67L720.91 1387.88H854.52Z" fill="#33AF00"/>
<path d="M988.14 1387.88L921.3 1494.67L854.52 1387.88H988.14Z" fill="#33AF00"/>
<path d="M854.46 1387.87L787.59 1280.96L720.99 1387.84L854.46 1387.87Z" fill="#006602"/>
<path d="M988.07 1387.8L921.27 1281L854.33 1387.87L988.07 1387.8Z" fill="#006602"/>
<path d="M1054.66 1281L987.87 1387.8L921.05 1281H1054.66Z" fill="#33AF00"/>
<path d="M1188.22 1281L1121.43 1387.8L1054.61 1281H1188.22Z" fill="#33AF00"/>
<path d="M1121.45 1387.81L1054.65 1281.01L987.71 1387.88L1121.45 1387.81Z" fill="#006602"/>
<path d="M921.32 1494.69L854.52 1387.88L787.22 1494.69H921.32Z" fill="#006602"/>
<path d="M787.69 1494.67L720.78 1601.6L653.96 1494.79L787.69 1494.67Z" fill="#33AF00"/>
<path d="M654.03 1494.8L587.24 1601.6L520.42 1494.8H654.03Z" fill="#33AF00"/>
<path d="M720.78 1601.6L653.99 1494.79L587.04 1601.67L720.78 1601.6Z" fill="#006602"/>
<path d="M921.33 1494.7L854.54 1601.5L787.72 1494.7H921.33Z" fill="#33AF00"/>
<path d="M854.48 1601.47L787.69 1494.67L720.75 1601.55L854.48 1601.47Z" fill="#006602"/>
<path d="M1122.7 1602.26L1055.01 1708.21L988.19 1601.41L1122.7 1602.26Z" fill="#33AF00"/>
<path d="M988.21 1601.43L921.41 1708.24L854.59 1601.43H988.21Z" fill="#33AF00"/>
<path d="M1055 1708.24L988.21 1601.43L921.26 1708.31L1055 1708.24Z" fill="#006602"/>
<path d="M921.54 1708.24L854.75 1601.43L787.8 1708.31L921.54 1708.24Z" fill="#006602"/>
<path d="M1121.74 1602.12L1054.9 1494.59L988.21 1601.43L1121.74 1602.12Z" fill="#006602"/>
<path d="M988.21 1601.43L921.41 1494.63L854.47 1601.51L988.21 1601.43Z" fill="#006602"/>
<path d="M987.92 1174.38L921.12 1067.58L854.18 1174.45L987.92 1174.38Z" fill="#006602"/>
<path d="M386.98 1281.21L320.18 1174.41L253.24 1281.29L386.98 1281.21Z" fill="#006602"/>
<path d="M453.79 1601.72L387 1494.92L320.64 1600.34L453.79 1601.72Z" fill="#006602"/>
<path d="M586.97 1601.72L520.42 1494.8L453.23 1601.8L586.97 1601.72Z" fill="#006602"/>
<path d="M720.76 1173.79L653.88 1281.02L586.99 1174.31L720.76 1173.79Z" fill="#33AF00"/>
<path d="M1054.99 1281.29L987.78 1173.79L920.93 1281L1054.99 1281.29Z" fill="#006602"/>
<path d="M921.24 1280.97L854.26 1174.03L787.63 1280.96L921.24 1280.97Z" fill="#006602"/>
<path d="M987.8 1173.79L920.92 1281.02L854.03 1174.31L987.8 1173.79Z" fill="#33AF00"/>
<path d="M854.36 1173.79L787.57 1280.74L720.75 1173.79H854.36Z" fill="#33AF00"/>
<path d="M587.03 1174.33L520.37 1281.23L453.5 1174.33H587.03Z" fill="#33AF00"/>
<path d="M453.96 1174.33L387.3 1281.23L320.43 1174.33H453.96Z" fill="#33AF00"/>
<path d="M319.92 1174.33L253.26 1281.23L186.39 1174.33H319.92Z" fill="#33AF00"/>
<path d="M653.75 1494.81L586.96 1388.01L520.42 1494.81H653.75Z" fill="#006602"/>
<path d="M854.68 1601.46L788.08 1708.34L721.06 1601.46H854.68Z" fill="#33AF00"/>
<path d="M721.13 1601.61L654.34 1708.41L587.52 1601.61H721.13Z" fill="#33AF00"/>
<path d="M788.08 1708.34L721.28 1601.54L654.34 1708.41L788.08 1708.34Z" fill="#006602"/>
<path d="M587.13 1601.61L520.34 1708.41L453.52 1601.61H587.13Z" fill="#33AF00"/>
<path d="M654.08 1708.34L587.28 1601.54L520.34 1708.41L654.08 1708.34Z" fill="#006602"/>
<path d="M453.63 1601.6L387.62 1708.67L320.44 1600.05L453.63 1601.6Z" fill="#33AF00"/>
<path d="M520.23 1708.59L453.6 1601.41L387.62 1708.67L520.23 1708.59Z" fill="#006602"/>
<path d="M520.42 1494.8L453.63 1388L387.09 1494.8H520.42Z" fill="#006602"/>
<path d="M320.42 1388L255.15 1494.8L188.33 1388H320.42Z" fill="#33AF00"/>
<path d="M387.06 1494.8L320.27 1388L255.15 1494.8H387.06Z" fill="#006602"/>
<path d="M587.03 1388L520.42 1494.8L453.77 1388H587.03Z" fill="#33AF00"/>
<path d="M654.06 854.03L587.21 960.83L520.39 854.03H654.06Z" fill="#33AF00"/>
<path d="M787.43 426.88L720.64 533.68L653.82 426.88H787.43Z" fill="#33AF00"/>
<path d="M853.96 320.05L787.16 426.86L720.34 320.05H853.96Z" fill="#33AF00"/>
<path d="M720.94 747.19L654.14 640.39L587.6 747.19H720.94Z" fill="#006602"/>
<path d="M854.23 533.61L787.43 640.41L720.61 533.61H854.23Z" fill="#33AF00"/>
<path d="M721.43 533.61L654.64 640.41L587.82 533.61H721.43Z" fill="#33AF00"/>
<path d="M853.94 533.65L787.14 426.85L720.6 533.65H853.94Z" fill="#006602"/>
<path d="M787.15 426.86L720.35 320.06L653.81 426.86H787.15Z" fill="#006602"/>
</g>
<defs>
<clipPath id="clip0_77_2379">
<rect width="1440" height="2981" fill="white"/>
</clipPath>
</defs>
</svg>
