<svg width="414" height="1242" viewBox="0 0 414 1242" fill="none" xmlns="http://www.w3.org/2000/svg">
<g clip-path="url(#clip0_181_7454)">
<path fill-rule="evenodd" clip-rule="evenodd" d="M484.537 767.866L443.47 833.195L389.009 833.038L361.663 788.52L310.567 788.531L310.566 785.417L363.402 785.405L390.752 829.929L441.755 830.076L481.903 766.208L484.537 767.866Z" fill="#474747"/>
<path d="M77.6855 747.17L337.572 747.298L311.768 788.659L103.735 788.877L77.6855 747.17Z" fill="#584439"/>
<path d="M311.743 1122.54L286.006 1164.58L260.35 1122.76L311.743 1122.54Z" fill="#8D8D8D"/>
<path d="M337.295 1164.45L311.744 1122.54L286.336 1163.18L337.295 1164.45Z" fill="#8D8D8D"/>
<path d="M337.294 1164.35L312.092 1204.95L285.631 1162.82L337.294 1164.35Z" fill="#8D8D8D"/>
<path d="M286.772 1163.63L260.17 1204.9L234.639 1164.01L286.772 1163.63Z" fill="#8D8D8D"/>
<path d="M312.089 1204.92L286.11 1163.17L260.17 1204.9L312.089 1204.92Z" fill="#8D8D8D"/>
<path d="M285.771 1164.08L260.349 1122.76L234.635 1164.05L285.771 1164.08Z" fill="#8D8D8D"/>
<path d="M260.225 1122.54L233.998 1163.81L259.954 1205.36L312.146 1205.08L337.011 1163.61L312.342 1122.54H260.225Z" fill="#8D8D8D"/>
<path d="M287.262 1149.06H284.111V1152.17H287.262V1149.06Z" fill="#474747"/>
<path d="M287.262 1175.15H284.111V1178.27H287.262V1175.15Z" fill="#474747"/>
<path d="M155.988 290.12L130.122 331.656L104.135 290.12H155.988Z" fill="#474747"/>
<path d="M181.963 331.656L155.984 290.12L130.105 331.656H181.963Z" fill="#474747"/>
<path d="M181.846 248.584L155.866 207.048L129.988 248.584H181.846Z" fill="#474747"/>
<path d="M233.692 331.679L207.841 290.128L181.963 331.664L233.692 331.679Z" fill="#8E8E8E"/>
<path d="M233.693 248.58L207.718 207.044L181.84 248.58H233.693Z" fill="#474747"/>
<path d="M285.549 331.683L259.686 290.112L233.691 331.683H285.549Z" fill="#474747"/>
<path d="M259.692 290.12L233.716 248.584L207.838 290.12H259.692Z" fill="#474747"/>
<path d="M363.619 373.238L337.644 331.702L311.766 373.238H363.619Z" fill="#474747"/>
<path d="M389.549 497.822L363.574 456.283L337.695 497.822H389.549Z" fill="#474747"/>
<path d="M207.855 290.1L181.876 331.64L155.893 290.1H207.855Z" fill="#474747"/>
<path d="M259.686 290.112L233.691 331.679L207.812 290.124L259.686 290.112Z" fill="#8E8E8E"/>
<path d="M259.506 373.223L233.694 331.679L207.652 373.223H259.506Z" fill="#474747"/>
<path d="M259.623 373.223L233.667 414.774L207.656 373.223H259.623Z" fill="#8E8E8E"/>
<path d="M285.658 331.679L259.678 373.215L233.691 331.679H285.658Z" fill="#8E8E8E"/>
<path d="M285.686 248.432L259.635 290.046L233.572 248.432H285.686Z" fill="#8E8E8E"/>
<path d="M233.818 248.584L207.843 290.12L181.855 248.584H233.818Z" fill="#8E8E8E"/>
<path d="M233.691 331.679L207.658 373.223L181.83 331.671L233.691 331.679Z" fill="#474747"/>
<path d="M233.72 414.785L207.616 373.218L181.645 414.945L233.72 414.785Z" fill="#474747"/>
<path d="M233.673 414.774L207.768 456.029L181.645 414.945L233.673 414.774Z" fill="#474747"/>
<path d="M233.901 497.838L207.762 456.03L181.764 497.725L233.901 497.838Z" fill="#474747"/>
<path d="M233.726 497.725L207.825 539.292L181.764 497.725H233.726Z" fill="#474747"/>
<path d="M337.593 414.75L311.618 456.294L285.631 414.75H337.593Z" fill="#474747"/>
<path d="M181.645 414.945L155.837 373.215L129.943 414.762L181.645 414.945Z" fill="#474747"/>
<path d="M181.82 414.692L155.747 456.232L129.881 414.7L181.82 414.692Z" fill="#474747"/>
<path d="M207.66 373.226L181.832 331.671L155.65 373.254L207.66 373.226Z" fill="#474747"/>
<path d="M207.609 373.242L181.645 414.945L155.697 373.223L207.609 373.242Z" fill="#8E8E8E"/>
<path d="M207.831 456.041L181.653 414.922L155.744 456.232L207.831 456.041Z" fill="#474747"/>
<path d="M129.976 414.727L103.856 456.271L77.8691 414.735L129.976 414.727Z" fill="#474747"/>
<path d="M129.836 497.814L103.856 539.35L77.8691 497.814H129.836Z" fill="#8E8E8E"/>
<path d="M77.8668 414.75L51.8914 456.286L25.9043 414.75H77.8668Z" fill="#474747"/>
<path d="M155.775 456.236L129.904 414.731L103.762 456.267L155.775 456.236Z" fill="#474747"/>
<path d="M311.584 373.215L285.608 414.751L259.621 373.215H311.584Z" fill="#474747"/>
<path d="M285.504 414.758L259.525 373.223L233.674 414.751L285.504 414.758Z" fill="#8E8E8E"/>
<path d="M285.636 414.75L259.661 456.286L233.674 414.75H285.636Z" fill="#8E8E8E"/>
<path d="M363.572 456.286L337.597 414.75L311.719 456.286H363.572Z" fill="#8E8E8E"/>
<path d="M363.582 456.283L337.606 497.822L311.619 456.283H363.582Z" fill="#8E8E8E"/>
<path d="M338.118 580.808L311.972 539.268L286.094 580.804L338.118 580.808Z" fill="#474747"/>
<path d="M338.117 580.808L311.784 622.344L285.797 580.808H338.117Z" fill="#474747"/>
<path d="M259.613 455.998L233.79 414.478L207.752 456.045L259.613 455.998Z" fill="#474747"/>
<path d="M181.798 497.814L155.749 456.224L129.836 497.814H181.798Z" fill="#474747"/>
<path d="M129.84 497.814L103.865 456.279L77.9863 497.814H129.84Z" fill="#474747"/>
<path d="M181.798 497.814L155.819 539.346L129.832 497.81L181.798 497.814Z" fill="#474747"/>
<path d="M207.825 539.292L181.768 497.733L155.77 539.334L207.825 539.292Z" fill="#474747"/>
<path d="M207.827 539.288L181.711 580.878L155.627 539.245L207.827 539.288Z" fill="#474747"/>
<path d="M77.9645 497.807L51.989 539.346L26.002 497.807H77.9645Z" fill="#474747"/>
<path d="M233.802 580.824L207.826 539.288L181.711 580.878L233.802 580.824Z" fill="#474747"/>
<path d="M415.921 539.284L390.067 581.042L363.516 539.257L415.921 539.284Z" fill="#474747"/>
<path d="M363.529 539.261L337.841 580.765L311.562 539.261H363.529Z" fill="#474747"/>
<path d="M390.065 581.042L363.53 539.261L337.461 580.804L390.065 581.042Z" fill="#474747"/>
<path d="M285.711 497.725L259.731 539.261L233.744 497.725H285.711Z" fill="#8E8E8E"/>
<path d="M259.791 539.292L233.8 580.824L207.828 539.292H259.791Z" fill="#8E8E8E"/>
<path d="M259.826 539.261L233.714 497.721L207.812 539.288L259.826 539.261Z" fill="#474747"/>
<path d="M311.681 539.265L285.706 497.729L259.672 539.292L311.681 539.265Z" fill="#474747"/>
<path d="M285.81 580.812L259.831 539.276L233.797 580.839L285.81 580.812Z" fill="#474747"/>
<path d="M233.802 580.824L207.78 622.41L181.793 580.87L233.802 580.824Z" fill="#474747"/>
<path d="M181.818 580.874L155.843 622.41L129.855 580.874H181.818Z" fill="#474747"/>
<path d="M207.779 622.41L181.803 580.87L155.766 622.437L207.779 622.41Z" fill="#474747"/>
<path d="M285.777 580.835L259.802 622.371L233.814 580.835H285.777Z" fill="#8E8E8E"/>
<path d="M259.779 622.359L233.803 580.824L207.77 622.391L259.779 622.359Z" fill="#474747"/>
<path d="M364.09 622.667L337.764 663.872L311.777 622.336L364.09 622.667Z" fill="#474747"/>
<path d="M311.783 622.344L285.803 663.884L259.816 622.344H311.783Z" fill="#474747"/>
<path d="M337.763 663.884L311.788 622.344L285.75 663.911L337.763 663.884Z" fill="#8E8E8E"/>
<path d="M389.701 663.872L364.091 622.667L337.688 663.903L389.701 663.872Z" fill="#8E8E8E"/>
<path d="M311.787 622.344L285.807 580.808L259.773 622.375L311.787 622.344Z" fill="#474747"/>
<path d="M311.625 456.298L285.692 414.723L259.658 456.286L311.625 456.298Z" fill="#8E8E8E"/>
<path d="M77.9584 497.807L51.9791 456.271L25.9453 497.838L77.9584 497.807Z" fill="#8E8E8E"/>
<path d="M207.769 456.03L181.758 497.733L155.744 456.232L207.769 456.03Z" fill="#8E8E8E"/>
<path d="M259.732 456.03L233.757 497.624L207.77 456.03H259.732Z" fill="#474747"/>
<path d="M155.761 456.24L129.837 497.814L103.83 456.24H155.761Z" fill="#8E8E8E"/>
<path d="M181.709 580.878L155.734 539.343L129.855 580.878H181.709Z" fill="#474747"/>
<path d="M259.855 622.356L233.954 663.923L207.889 622.356H259.855Z" fill="#8E8E8E"/>
<path d="M207.916 622.414L181.94 663.95L155.953 622.414H207.916Z" fill="#8E8E8E"/>
<path d="M233.951 663.922L207.971 622.387L181.938 663.95L233.951 663.922Z" fill="#8E8E8E"/>
<path d="M233.952 663.922L207.724 705.513L181.92 663.926L233.952 663.922Z" fill="#584439"/>
<path d="M259.654 705.139L233.955 663.922L207.746 705.38L259.654 705.139Z" fill="#584439"/>
<path d="M259.654 705.139L233.569 747.002L207.645 705.182L259.654 705.139Z" fill="#584439"/>
<path d="M208.021 705.377L182.042 746.916L156.055 705.377H208.021Z" fill="#584439"/>
<path d="M233.569 747.002L207.913 705.505L181.879 747.068L233.569 747.002Z" fill="#584439"/>
<path d="M207.823 705.509L181.941 663.95L156.055 705.377L207.823 705.509Z" fill="#584439"/>
<path d="M155.762 539.338L129.857 580.874L103.936 539.338H155.762Z" fill="#8E8E8E"/>
<path d="M181.83 331.671L155.831 373.207L129.844 331.671H181.83Z" fill="#8E8E8E"/>
<path d="M155.832 373.207L129.857 331.671L103.979 373.207H155.832Z" fill="#474747"/>
<path d="M129.945 331.671L103.97 373.207L77.9824 331.671H129.945Z" fill="#474747"/>
<path d="M181.963 248.584L155.987 290.12L130 248.584H181.963Z" fill="#8E8E8E"/>
<path d="M155.931 207.106L129.956 248.642L103.969 207.106H155.931Z" fill="#8E8E8E"/>
<path d="M233.602 165.516L207.725 207.083L181.738 165.548L233.602 165.516Z" fill="#8E8E8E"/>
<path d="M259.574 124L233.587 165.54L207.607 124H259.574Z" fill="#8E8E8E"/>
<path d="M207.84 290.12L181.861 248.584L155.982 290.12H207.84Z" fill="#474747"/>
<path d="M259.588 207.091L233.698 248.592L207.711 207.056L259.588 207.091Z" fill="#474747"/>
<path d="M259.59 207.091L233.587 165.536L207.709 207.072L259.59 207.091Z" fill="#474747"/>
<path d="M233.592 165.54L207.613 124.004L181.734 165.54H233.592Z" fill="#474747"/>
<path d="M77.8926 746.928L337.744 747.056L311.944 788.382L103.938 788.6L77.8926 746.928Z" fill="#584439"/>
<path d="M129.857 580.878L103.878 622.414L77.9688 580.797L129.857 580.878Z" fill="#474747"/>
<path d="M103.887 622.41L77.9663 580.758L52.1426 622.048L103.887 622.41Z" fill="#8E8E8E"/>
<path d="M103.88 622.41L78.1576 663.985L52.2988 621.982L103.88 622.41Z" fill="#474747"/>
<path d="M156.143 705.404L182.394 747.406L232.564 748.767L259.788 705.404L233.925 663.985H182.005L156.143 705.404Z" fill="#584439"/>
<path d="M337.762 497.919L311.619 456.294L337.762 414.887L363.819 456.111L337.762 497.919Z" fill="#8E8E8E"/>
<path d="M221.283 185.429L181.809 248.432H233.728L259.591 207.091L221.283 185.429Z" fill="#474747"/>
<path d="M207.864 290.046L181.846 331.667L233.727 331.465L259.589 290.046H207.864Z" fill="#8E8E8E"/>
<path d="M181.806 331.659L155.943 373.273H259.783L233.726 331.659H181.806Z" fill="#474747"/>
<path d="M155.944 290.046H104.219L130.081 331.854H181.807L207.669 290.046L181.807 248.432L155.944 290.046Z" fill="#474747"/>
<path d="M104.025 373.079L77.7734 331.659H129.888L155.75 373.079H104.025Z" fill="#474747"/>
<path d="M259.588 456.111L207.668 373.273H259.588L311.624 456.298L259.588 456.111Z" fill="#8E8E8E"/>
<path d="M103.832 456.111L78.1641 414.887H130.084L155.849 373.467L181.615 414.887L207.672 373.273L259.786 456.111L233.923 497.53L259.98 539.144H207.866L259.786 622.371H155.946L129.889 580.952L155.752 539.144L129.85 497.803L155.752 456.889L181.42 497.53L207.866 456.111H103.832Z" fill="#474747"/>
<path d="M192.114 622.566L182.002 663.79H233.922V622.566H192.114Z" fill="#8E8E8E"/>
<path d="M311.899 539.338H415.544L389.876 580.757H338.151L286.037 663.985L259.785 622.371L311.899 539.338Z" fill="#474747"/>
<path d="M52.3009 621.982L25.921 664.074L0 622.538L52.3009 621.982Z" fill="#8E8E8E"/>
<path d="M78.2016 663.985L52.3 621.982L25.9707 664.059L78.2016 663.985Z" fill="#474747"/>
<path d="M311.572 290.104L285.597 248.568L259.691 290.104H311.572Z" fill="#8E8E8E"/>
<path d="M337.55 248.568L311.571 290.104L285.584 248.568H337.55Z" fill="#8E8E8E"/>
<path d="M337.547 248.568L311.572 207.033L285.693 248.568H337.547Z" fill="#474747"/>
<path d="M363.527 290.104L337.552 248.568L311.572 290.104H363.527Z" fill="#474747"/>
<path d="M294.011 248.627H285.844L301.984 289.851H311.706L294.011 248.627Z" fill="#8E8E8E"/>
<path d="M259.721 290.091L253.631 280.347L285.704 248.68L264.187 290.091H259.721Z" fill="#8E8E8E"/>
</g>
<defs>
<clipPath id="clip0_181_7454">
<rect width="414" height="1242" fill="white"/>
</clipPath>
</defs>
</svg>
