<svg width="1440" height="2981" viewBox="0 0 1440 2981" fill="none" xmlns="http://www.w3.org/2000/svg">
<g clip-path="url(#clip0_74_1848)">
<path d="M587.609 747.19L521.099 853.99L454.279 747.19H587.609Z" fill="#474747"/>
<path d="M654.4 853.99L587.6 747.19L521.06 853.99H654.4Z" fill="#474747"/>
<path d="M654.1 640.39L587.3 533.59L520.76 640.39H654.1Z" fill="#474747"/>
<path d="M787.409 854.05L720.939 747.21L654.399 854.01L787.409 854.05Z" fill="#8E8E8E"/>
<path d="M787.409 640.38L720.619 533.58L654.079 640.38H787.409Z" fill="#474747"/>
<path d="M920.749 854.06L854.249 747.17L787.409 854.06H920.749Z" fill="#474747"/>
<path d="M854.26 747.19L787.47 640.39L720.93 747.19H854.26Z" fill="#474747"/>
<path d="M1054.44 640.35L987.649 533.55L921.109 640.35H1054.44Z" fill="#474747"/>
<path d="M987.65 747.15L920.86 640.35L854.25 747.15H987.65Z" fill="#8E8E8E"/>
<path d="M1121.24 747.15L1054.45 640.35L987.909 747.15H1121.24Z" fill="#474747"/>
<path d="M1121.49 960.91L1054.7 854.11L988.159 960.91H1121.49Z" fill="#474747"/>
<path d="M1188.16 1281.25L1121.37 1174.44L1054.83 1281.25H1188.16Z" fill="#474747"/>
<path d="M720.979 747.14L654.179 853.95L587.369 747.14H720.979Z" fill="#474747"/>
<path d="M854.249 747.17L787.409 854.05L720.869 747.2L854.249 747.17Z" fill="#8E8E8E"/>
<path d="M853.779 960.87L787.409 854.05L720.449 960.87H853.779Z" fill="#474747"/>
<path d="M854.09 960.87L787.35 1067.71L720.47 960.87H854.09Z" fill="#8E8E8E"/>
<path d="M921.029 854.05L854.229 960.85L787.409 854.05H921.029Z" fill="#8E8E8E"/>
<path d="M921.04 640.37L854.25 747.17L787.43 640.37H921.04Z" fill="#8E8E8E"/>
<path d="M787.729 640.39L720.939 747.19L654.119 640.39H787.729Z" fill="#8E8E8E"/>
<path d="M787.41 854.05L720.47 960.87L654.06 854.03L787.41 854.05Z" fill="#474747"/>
<path d="M787.479 1067.74L720.359 960.86L653.579 1068.15L787.479 1067.74Z" fill="#474747"/>
<path d="M787.359 1067.71L720.749 1173.79L653.579 1068.15L787.359 1067.71Z" fill="#474747"/>
<path d="M787.95 1281.29L720.74 1173.79L653.89 1281L787.95 1281.29Z" fill="#474747"/>
<path d="M787.5 1281L720.9 1387.88L653.89 1281H787.5Z" fill="#474747"/>
<path d="M1054.57 1067.65L987.78 1174.47L920.96 1067.65H1054.57Z" fill="#474747"/>
<path d="M653.58 1068.15L587.22 960.85L520.64 1067.68L653.58 1068.15Z" fill="#474747"/>
<path d="M654.03 1067.5L586.99 1174.31L520.479 1067.52L654.03 1067.5Z" fill="#474747"/>
<path d="M720.469 960.88L654.059 854.03L586.739 960.95L720.469 960.88Z" fill="#474747"/>
<path d="M720.339 960.92L653.579 1068.15L586.859 960.87L720.339 960.92Z" fill="#8E8E8E"/>
<path d="M720.919 1173.82L653.609 1068.09L586.989 1174.31L720.919 1173.82Z" fill="#474747"/>
<path d="M520.73 1067.59L453.57 1174.41L386.75 1067.61L520.73 1067.59Z" fill="#474747"/>
<path d="M520.37 1281.23L453.57 1388.03L386.75 1281.23H520.37Z" fill="#8E8E8E"/>
<path d="M386.74 1067.65L319.95 1174.45L253.13 1067.65H386.74Z" fill="#474747"/>
<path d="M587.059 1174.32L520.539 1067.6L453.319 1174.4L587.059 1174.32Z" fill="#474747"/>
<path d="M987.7 960.85L920.91 1067.65L854.09 960.85H987.7Z" fill="#474747"/>
<path d="M920.629 1067.67L853.829 960.87L787.359 1067.65L920.629 1067.67Z" fill="#8E8E8E"/>
<path d="M920.969 1067.65L854.179 1174.45L787.359 1067.65H920.969Z" fill="#8E8E8E"/>
<path d="M1121.37 1174.45L1054.58 1067.65L988.039 1174.45H1121.37Z" fill="#8E8E8E"/>
<path d="M1121.39 1174.44L1054.6 1281.25L987.779 1174.44H1121.39Z" fill="#8E8E8E"/>
<path d="M1055.92 1494.63L988.689 1387.82L922.149 1494.62L1055.92 1494.63Z" fill="#474747"/>
<path d="M1055.92 1494.63L988.21 1601.43L921.39 1494.63H1055.92Z" fill="#474747"/>
<path d="M854.06 1173.71L787.66 1066.95L720.71 1173.83L854.06 1173.71Z" fill="#474747"/>
<path d="M653.979 1281.23L586.999 1174.29L520.369 1281.23H653.979Z" fill="#474747"/>
<path d="M520.38 1281.23L453.59 1174.43L387.05 1281.23H520.38Z" fill="#474747"/>
<path d="M653.979 1281.23L587.179 1388.02L520.359 1281.22L653.979 1281.23Z" fill="#474747"/>
<path d="M720.9 1387.88L653.9 1281.02L587.05 1387.99L720.9 1387.88Z" fill="#474747"/>
<path d="M720.9 1387.87L653.75 1494.81L586.68 1387.76L720.9 1387.87Z" fill="#474747"/>
<path d="M386.99 1281.21L320.2 1388.02L253.38 1281.21H386.99Z" fill="#474747"/>
<path d="M787.69 1494.67L720.9 1387.87L653.75 1494.81L787.69 1494.67Z" fill="#474747"/>
<path d="M1255.97 1387.86L1189.49 1495.23L1121.22 1387.79L1255.97 1387.86Z" fill="#474747"/>
<path d="M1121.26 1387.8L1055.21 1494.52L987.64 1387.8H1121.26Z" fill="#474747"/>
<path d="M1189.49 1495.23L1121.26 1387.8L1054.23 1494.62L1189.49 1495.23Z" fill="#474747"/>
<path d="M921.159 1281L854.359 1387.8L787.539 1281H921.159Z" fill="#8E8E8E"/>
<path d="M854.519 1387.88L787.689 1494.67L720.909 1387.88H854.519Z" fill="#8E8E8E"/>
<path d="M854.609 1387.8L787.469 1280.99L720.869 1387.87L854.609 1387.8Z" fill="#474747"/>
<path d="M987.94 1387.81L921.15 1281.01L854.21 1387.88L987.94 1387.81Z" fill="#474747"/>
<path d="M921.42 1494.64L854.62 1387.84L787.68 1494.71L921.42 1494.64Z" fill="#474747"/>
<path d="M787.69 1494.67L720.78 1601.6L653.96 1494.79L787.69 1494.67Z" fill="#474747"/>
<path d="M654.03 1494.8L587.24 1601.6L520.42 1494.8H654.03Z" fill="#474747"/>
<path d="M720.779 1601.6L653.989 1494.79L587.039 1601.67L720.779 1601.6Z" fill="#474747"/>
<path d="M921.33 1494.7L854.54 1601.5L787.72 1494.7H921.33Z" fill="#8E8E8E"/>
<path d="M854.48 1601.47L787.69 1494.67L720.75 1601.55L854.48 1601.47Z" fill="#474747"/>
<path d="M1122.7 1602.26L1055.01 1708.21L988.189 1601.41L1122.7 1602.26Z" fill="#474747"/>
<path d="M988.21 1601.43L921.41 1708.24L854.59 1601.43H988.21Z" fill="#474747"/>
<path d="M1055 1708.24L988.21 1601.43L921.26 1708.31L1055 1708.24Z" fill="#8E8E8E"/>
<path d="M1188.55 1708.21L1122.7 1602.26L1054.81 1708.29L1188.55 1708.21Z" fill="#8E8E8E"/>
<path d="M988.21 1601.43L921.41 1494.63L854.47 1601.51L988.21 1601.43Z" fill="#474747"/>
<path d="M987.8 1174.48L921.12 1067.58L854.18 1174.45L987.8 1174.48Z" fill="#8E8E8E"/>
<path d="M386.979 1281.21L320.179 1174.41L253.239 1281.29L386.979 1281.21Z" fill="#8E8E8E"/>
<path d="M720.759 1173.79L653.879 1281.02L586.989 1174.31L720.759 1173.79Z" fill="#8E8E8E"/>
<path d="M854.36 1173.79L787.57 1280.74L720.75 1173.79H854.36Z" fill="#474747"/>
<path d="M587.03 1174.33L520.37 1281.23L453.5 1174.33H587.03Z" fill="#8E8E8E"/>
<path d="M653.75 1494.81L586.96 1388.01L520.42 1494.81H653.75Z" fill="#474747"/>
<path d="M854.68 1601.46L788.08 1708.34L721.06 1601.46H854.68Z" fill="#8E8E8E"/>
<path d="M721.13 1601.61L654.34 1708.41L587.52 1601.61H721.13Z" fill="#8E8E8E"/>
<path d="M788.08 1708.34L721.28 1601.54L654.34 1708.41L788.08 1708.34Z" fill="#8E8E8E"/>
<path d="M788.079 1708.34L720.639 1815.28L654.289 1708.35L788.079 1708.34Z" fill="#584439"/>
<path d="M854.159 1814.32L788.079 1708.34L720.689 1814.94L854.159 1814.32Z" fill="#584439"/>
<path d="M854.16 1814.32L787.09 1921.96L720.43 1814.43L854.16 1814.32Z" fill="#584439"/>
<path d="M721.399 1814.93L654.599 1921.74L587.779 1814.93H721.399Z" fill="#584439"/>
<path d="M787.09 1921.96L721.12 1815.26L654.18 1922.13L787.09 1921.96Z" fill="#584439"/>
<path d="M720.889 1815.27L654.339 1708.41L587.779 1814.93L720.889 1815.27Z" fill="#584439"/>
<path d="M587.03 1388L520.42 1494.8L453.77 1388H587.03Z" fill="#8E8E8E"/>
<path d="M321 1600.5L253.17 1708.73L186.52 1601.93L321 1600.5Z" fill="#8E8E8E"/>
<path d="M654.06 854.03L587.21 960.83L520.39 854.03H654.06Z" fill="#8E8E8E"/>
<path d="M587.21 960.83L520.42 854.03L453.88 960.83H587.21Z" fill="#474747"/>
<path d="M520.639 854.03L453.849 960.83L387.029 854.03H520.639Z" fill="#474747"/>
<path d="M654.399 640.39L587.609 747.19L520.789 640.39H654.399Z" fill="#8E8E8E"/>
<path d="M587.469 533.74L520.679 640.54L453.859 533.74H587.469Z" fill="#8E8E8E"/>
<path d="M787.175 426.8L720.639 533.68L653.819 426.88L787.175 426.8Z" fill="#8E8E8E"/>
<path d="M853.96 320.05L787.14 426.86L720.34 320.05H853.96Z" fill="#8E8E8E"/>
<path d="M1054.45 640.35L987.649 747.15L920.829 640.35H1054.45Z" fill="#8E8E8E"/>
<path d="M720.94 747.19L654.14 640.39L587.6 747.19H720.94Z" fill="#474747"/>
<path d="M853.999 533.7L787.429 640.41L720.609 533.61L853.999 533.7Z" fill="#474747"/>
<path d="M854 533.7L787.14 426.85L720.6 533.65L854 533.7Z" fill="#474747"/>
<path d="M787.15 426.86L720.35 320.06L653.81 426.86H787.15Z" fill="#474747"/>
<path d="M985.529 2024.03L1119.13 2024L1189.44 2138.38L1325.01 2138.77L1458 1927" stroke="#474747" stroke-width="8" stroke-miterlimit="10"/>
<path d="M386.81 1921.77L1054.96 1922.1L988.62 2028.36L453.78 2028.92L386.81 1921.77Z" fill="#584439"/>
<path d="M520.42 1494.81L453.62 1601.61L387 1494.6L520.42 1494.81Z" fill="#474747"/>
<path d="M453.65 1601.6L387 1494.5L320.6 1600.67L453.65 1601.6Z" fill="#8E8E8E"/>
<path d="M453.63 1601.6L387.49 1708.5L321 1600.5L453.63 1601.6Z" fill="#474747"/>
<path d="M387.5 1708.5L321 1600.5L253.3 1708.69L387.5 1708.5Z" fill="#474747"/>
<path d="M991.4 2671.61L922.05 2779.4L856.09 2671.96L991.4 2671.61Z" fill="#8D8D8D"/>
<path d="M1056.63 2776.28L991.399 2671.61L922.899 2775.8L1056.63 2776.28Z" fill="#8D8D8D"/>
<path d="M921.45 2778.13L856.09 2671.96L790 2778L921.45 2778.13Z" fill="#8D8D8D"/>
<path d="M927.31 2739.52H919.21V2747.52H927.31V2739.52Z" fill="black"/>
<path d="M927.31 2806.56H919.21V2814.56H927.31V2806.56Z" fill="black"/>
<path d="M588 1815L655.5 1923L784.5 1926.5L854.5 1815L788 1708.5H654.5L588 1815Z" fill="#584439"/>
<path d="M1055 1281.5L987.779 1174.47L1055 1068L1122 1174L1055 1281.5Z" fill="#8E8E8E"/>
<path d="M755.5 478L654 640H787.5L854 533.7L755.5 478Z" fill="#474747"/>
<path d="M1053.5 640.5H787L854 747H988L1053.5 640.5Z" fill="#8E8E8E"/>
<path d="M721 747L654.1 854.02L787.5 853.5L854 747H721Z" fill="#8E8E8E"/>
<path d="M654 854L587.5 961H854.5L787.5 854H654Z" fill="#474747"/>
<path d="M587.5 747H454.5L521 854.5H654L720.5 747L654 640L587.5 747Z" fill="#474747"/>
<path d="M454 960.5L386.5 854H520.5L587 960.5H454Z" fill="#474747"/>
<path d="M854 1174L720.5 961H854L987.8 1174.48L854 1174Z" fill="#8E8E8E"/>
<path d="M453.5 1174L387.5 1068H521L587.25 961.5L653.5 1068L720.5 961L854.5 1174L788 1280.5L855 1387.5H721L854.5 1601.5H587.5L520.5 1495L587 1387.5L520.4 1281.2L587 1176L653 1280.5L721 1174H453.5Z" fill="#474747"/>
<path d="M321 1600.5L253.5 1708.5H387.5L453.7 1601.5L321 1600.5Z" fill="#474747"/>
<path d="M680.5 1602L654.5 1708H788V1602H680.5Z" fill="#8E8E8E"/>
<path d="M988.5 1388H1255L1189 1494.5H1056L922 1708.5L854.5 1601.5L988.5 1388Z" fill="#474747"/>
<path d="M991.4 2672L922.05 2779.79L856.09 2672.35L991.4 2672Z" fill="#8D8D8D"/>
<path d="M1056.66 2776.69L991.4 2672L922.9 2776.19L1056.66 2776.69Z" fill="#8D8D8D"/>
<path d="M1056.66 2776.68L989.121 2883.58L921.091 2775.69L1056.66 2776.68Z" fill="#8D8D8D"/>
<path d="M924.021 2777.76L855.631 2883.79L790.4 2778.73L924.021 2777.76Z" fill="#8D8D8D"/>
<path d="M989.111 2883.83L922.321 2776.57L855.631 2883.79L989.111 2883.83Z" fill="#8D8D8D"/>
<path d="M921.45 2778.52L856.09 2672.35L790 2778.39L921.45 2778.52Z" fill="#8D8D8D"/>
<path d="M857 2673.39L790 2778.39L857 2882.39L989 2883.39L1056.5 2776.89L989.5 2673.39H857Z" fill="#8D8D8D"/>
<path d="M926.81 2740.91H918.71V2748.91H926.81V2740.91Z" fill="#474747"/>
<path d="M926.81 2807.95H918.71V2815.95H926.81V2807.95Z" fill="#474747"/>
</g>
<defs>
<clipPath id="clip0_74_1848">
<rect width="1440" height="2981" fill="white"/>
</clipPath>
</defs>
</svg>
