<svg width="267" height="212" viewBox="0 0 267 212" fill="none" xmlns="http://www.w3.org/2000/svg">
<path d="M201.41 0L132.06 107.79L66.0996 0.349854L201.41 0Z" fill="#8D8D8D"/>
<path d="M266.64 104.67L201.41 0L132.91 104.19L266.64 104.67Z" fill="#8D8D8D"/>
<path d="M266.67 104.27L199.13 211.17L131.1 103.28L266.67 104.27Z" fill="#8D8D8D"/>
<path d="M134.03 105.35L65.64 211.38L0 106.32L134.03 105.35Z" fill="#8D8D8D"/>
<path d="M199.12 211.42L132.33 104.16L65.6396 211.38L199.12 211.42Z" fill="#8D8D8D"/>
<path d="M131.46 106.52L66.0998 0.349854L0.00976562 106.39L131.46 106.52Z" fill="#8D8D8D"/>
<path d="M67.0098 1.38989L1.50977 105.89L67.0098 210.39L199.01 211.39L262.51 105.89L199.51 1.38989H67.0098Z" fill="#8D8D8D"/>
<path d="M137.32 67.9099H129.22V75.9099H137.32V67.9099Z" fill="#474747"/>
<path d="M137.32 134.95H129.22V142.95H137.32V134.95Z" fill="#474747"/>
</svg>
