<svg width="123" height="109" viewBox="0 0 123 109" fill="none" xmlns="http://www.w3.org/2000/svg">
<g clip-path="url(#clip0_1_680)">
<path d="M69.0162 53.1205L55.7466 74.2556H53.0602L59.8052 63.3307L49.3844 74.2276L40.1765 74.1965L53.4277 53.2137H56.1264L44.517 71.8941L48.4103 71.9003L66.4492 53.1205H69.0162Z" fill="white"/>
<path d="M92.7435 53.316L79.6607 74.5132H76.9559L84.9048 61.4786L70.7132 74.9141L73.9877 59.8908L64.6328 74.3765H61.9096L75.1548 53.2881H77.786L74.4104 68.6251L90.1765 53.316H92.7435Z" fill="white"/>
<path d="M38.814 64.1226V64.3254H38.6879L38.814 64.1226Z" fill="white"/>
<path d="M38.814 64.1226V64.3254H38.6879L38.814 64.1226Z" fill="white"/>
<path d="M44.8969 53.2638L39.0095 62.6413L28.8337 62.6226L34.7088 53.2638H31.9795L26.1074 62.6164L26.0676 62.6817L18.716 74.3678H21.4422L27.3787 64.9313L37.5576 64.9468L31.6487 74.3616H34.3749L47.6231 53.2576L44.8969 53.2638ZM38.8135 64.1234V64.3098H38.6879L38.8135 64.1234Z" fill="white"/>
<path d="M38.814 64.1226V64.3254H38.6879L38.814 64.1226Z" fill="white"/>
<path d="M26.0675 62.616H26.1088L26.0675 62.683V62.616Z" fill="white"/>
<path d="M38.814 64.1226V64.3254H38.6879L38.814 64.1226Z" fill="white"/>
<path d="M57.7896 22.0269H51.0292L41.0126 37.9481L44.572 43.5969L51.1456 43.569L60.9661 27.3339L57.7896 22.0269ZM45.7422 41.4343L43.5244 37.9512L52.1993 24.1801H56.6103L58.4482 27.3184L49.954 41.4157L45.7422 41.4343Z" fill="white"/>
<path d="M37.536 94.2752L40.4001 89.167L37.3859 84.0494L30.5796 84.0743L21.1389 99.11L24.3859 104.457H37.1409L40.4736 99.2343L37.536 94.2752ZM25.896 101.969L24.1653 99.0603L26.671 95.0706L35.2478 95.198L37.6984 99.1908L35.8605 102.031L25.896 101.969ZM36.0749 86.4327L37.6708 89.1297L35.5695 92.7682L28.1474 92.647L32.0223 86.4513L36.0749 86.4327Z" fill="white"/>
<path d="M54.408 86.6563L50.3432 93.1627L55.6271 93.141L54.1384 95.5397L48.8422 95.5615L44.7651 102.087L54.8981 102.236L53.3696 104.619L40.4369 104.457L53.1 84.2699L66.2532 84.1301L64.789 86.5289L54.408 86.6563Z" fill="white"/>
<path d="M122.707 84.1735L109.995 104.768H107.186L114.578 92.6499L101.182 105.327L104.295 91.0528L95.5217 104.637H92.6913L105.56 84.1487H107.113L107.251 83.9312L107.205 84.1487H108.252L105.042 98.74L120.042 84.1735H122.707Z" fill="white"/>
<path d="M94.1034 83.9503H87.5543L78.0095 99.1103L81.4678 104.598L87.8423 104.573L97.1972 89.0958L94.1034 83.9503ZM82.7482 102.242L80.7602 99.1351L88.8347 86.3211H92.8169L94.4587 89.1176L86.5466 102.217L82.7482 102.242Z" fill="white"/>
<path d="M84.6169 84.2576L83.2109 86.6594L83.2078 86.6656L76.9681 86.6687L65.6742 104.662H62.8653L74.147 86.6687H67.9134L69.2153 84.2576L75.6571 84.2607H76.1472L84.6169 84.2576Z" fill="white"/>
<path d="M83.2385 86.6688H76.9682L83.2079 86.6657L83.211 86.6594L83.2385 86.6688Z" fill="white"/>
<path d="M14.5438 102.04L25.6692 84.099H22.8695L11.7379 102.046L4.27608 102.031L15.3433 84.099H12.5436L-0.0154114 104.423L12.516 104.454H13.0306L16.6329 104.432L18.9639 108.161H21.7698L17.947 102.021L14.5438 102.04ZM12.5221 102.04H12.5436L12.5221 102.074V102.04Z" fill="white"/>
<path d="M12.5444 102.053L12.5223 102.088V102.053H12.5444Z" fill="white"/>
<path d="M12.5444 102.053L12.5223 102.088V102.053H12.5444Z" fill="white"/>
<path d="M13.0459 104.454L12.5313 104.457V104.454H13.0459Z" fill="white"/>
<path d="M65.4476 0L56.8431 13.5038L74.0489 13.51L65.4476 0Z" fill="white"/>
<path d="M79.8015 22.4897H77.7706L64.7154 36.3447L57.4833 36.5498L61.1866 43.3856L63.4993 43.3203L61.1713 38.5197H65.4107H67.9042H70.8172H71.1572L75.7306 38.4917L72.7899 43.339H75.2404L79.4676 36.3198L71.6259 36.3664L79.8015 22.4897ZM65.4046 36.3447H65.4935L65.4046 36.4379V36.3447ZM69.2213 36.3447H67.6897L71.8556 31.9946L69.2213 36.3447Z" fill="white"/>
<path d="M67.9041 38.4978L70.8203 38.4791L67.9041 38.4978ZM65.4046 36.3445V36.4377L65.4934 36.3445H65.4046Z" fill="white"/>
<path d="M65.4945 36.3445L65.4046 36.4389V36.3445H65.4945Z" fill="white"/>
</g>
<defs>
<clipPath id="clip0_1_680">
<rect width="122.707" height="108.164" fill="white"/>
</clipPath>
</defs>
</svg>
