<svg width="267" height="105" viewBox="0 0 267 105" fill="none" xmlns="http://www.w3.org/2000/svg">
<g clip-path="url(#clip0_1_705)">
<path d="M13.2022 0.450195V21.072H7.86706V0.450195H0V51.8696H7.86706V29.2667H13.2022V51.8696H20.9788V0.450195H13.2022Z" fill="white"/>
<path d="M34.3619 52.41H32.8247C26.5853 52.41 23.2395 48.988 23.2395 42.6844V32.4185H31.0161V41.4237C31.0161 43.765 31.7395 45.0257 33.5481 45.0257C35.447 45.0257 36.08 43.765 36.08 40.6132V39.4425C36.08 35.7504 35.7183 34.4897 32.9151 30.7976L28.0321 24.4039C24.6863 20.0815 23.6916 16.8396 23.6916 11.7067V10.0858C23.6916 3.1518 27.2182 0 33.3672 0H34.814C41.2343 0 43.7662 2.79159 43.7662 8.91509V17.3799H36.1704V9.90566C36.1704 8.19468 35.8087 6.84391 33.9098 6.84391C32.0108 6.84391 31.6491 8.01458 31.6491 10.446V11.4365C31.6491 14.3182 32.1917 15.9391 34.814 19.271L39.7875 25.6647C43.3141 30.2573 44.3992 32.8688 44.3992 38.6321V40.253C44.4896 47.9074 41.2343 52.41 34.3619 52.41Z" fill="white"/>
<path d="M64.5642 0.450195V7.92447H54.6173V21.4322H62.394V29.1766H54.6173V44.0351H65.0163V51.8696H46.7503V0.450195H64.5642Z" fill="white"/>
<path d="M86.176 42.2341H80.4792L79.394 51.8696H72.4312L78.7611 0.450195H88.0749L94.7665 51.8696H87.1707L86.176 42.2341ZM85.2717 34.5797L83.1919 15.5788L81.2026 34.5797H85.2717Z" fill="white"/>
<path d="M103.809 51.8696H95.942V0.450195H108.602C113.846 0.450195 116.469 2.70148 116.469 8.37472V17.4699C116.469 21.7924 114.479 23.4133 113.033 24.0437C114.751 24.7641 116.469 26.2049 116.469 29.6269V47.6372C116.469 49.7083 116.921 50.6989 117.192 51.4193V51.7795H109.416C109.054 51.2392 108.692 50.3387 108.692 47.5471V32.1483C108.692 29.897 108.24 28.9065 105.798 28.9065H103.809V51.8696ZM103.809 21.6123H105.889C108.059 21.6123 108.692 20.2615 108.692 17.9202V10.7161C108.692 8.46477 108.24 7.38416 105.889 7.38416H103.809V21.6123Z" fill="white"/>
<path d="M132.384 7.92447V51.8696H124.607V7.92447H118.006V0.450195H138.894V7.92447H132.384Z" fill="white"/>
<path d="M160.054 42.2341H154.357L153.272 51.8696H146.309L152.639 0.450195H161.863L168.554 51.8696H160.958L160.054 42.2341ZM159.15 34.5797L157.07 15.5788L155.081 34.5797H159.15Z" fill="white"/>
<path d="M176.964 0.450195L183.655 28.0059V0.450195H190.799V51.8696H184.469L176.964 22.3327V51.8696H169.82V0.450195H176.964Z" fill="white"/>
<path d="M193.693 0.450195H205.719C212.411 0.450195 214.491 4.23236 214.491 10.3559V41.6037C214.491 47.9073 212.139 51.8696 205.719 51.8696H193.693V0.450195ZM201.56 44.3953H203.459C205.81 44.3953 206.533 43.1346 206.533 40.433V11.4365C206.533 8.46478 205.81 7.47421 203.82 7.47421H201.56V44.3953Z" fill="white"/>
<path d="M0 52.9502H12.0267C18.7182 52.9502 20.798 56.7324 20.798 62.8559V94.1037C20.798 100.407 18.4469 104.37 12.0267 104.37H0V52.9502ZM7.86706 96.8053H9.76601C12.1171 96.8053 12.8405 95.5445 12.8405 92.843V63.9365C12.8405 60.9648 12.1171 59.9742 10.1277 59.9742H7.86706V96.8053Z" fill="white"/>
<path d="M41.4151 52.9502V60.3344H31.3778V73.8421H39.2449V81.6766H31.3778V96.5351H41.8673V104.28H23.6012V52.9502H41.4151Z" fill="white"/>
<path d="M54.346 104.82H52.8088C46.5694 104.82 43.2236 101.398 43.2236 95.0943V84.8285H51.0003V93.8336C51.0003 96.175 51.7237 97.4357 53.5322 97.4357C55.4311 97.4357 56.0641 96.175 56.0641 93.0232V91.8525C56.0641 88.1604 55.7024 86.8997 52.8992 83.2076L47.9258 76.8139C44.58 72.4914 43.5853 69.2496 43.5853 64.1166V62.4957C43.5853 55.6518 47.0215 52.5 53.2609 52.5H54.7077C61.128 52.5 63.6599 55.2916 63.6599 61.4151V69.8799H56.0641V62.4957C56.0641 60.7847 55.7024 59.434 53.8035 59.434C51.9045 59.434 51.5428 60.6046 51.5428 63.036V63.9365C51.5428 66.8182 52.0854 68.4391 54.7077 71.771L59.6812 78.1647C63.2078 82.7573 64.2929 85.3688 64.2929 91.1321V92.753C64.4737 100.407 61.2184 104.82 54.346 104.82Z" fill="white"/>
<path d="M74.5111 52.9502H66.644V104.37H74.5111V52.9502Z" fill="white"/>
<path d="M84.7292 105C80.1175 105 77.2239 100.948 77.2239 95.6346V63.4862C77.2239 57.7229 79.4845 52.4099 86.8994 52.4099H88.4367C96.8463 52.4099 97.841 57.9031 97.841 63.9365V69.1595H90.2452V63.3962C90.2452 61.1449 89.7026 59.8842 87.7133 59.8842C86.0856 59.8842 85.2718 61.1449 85.2718 63.3962V93.4734C85.2718 95.9048 86.2664 97.1655 87.8037 97.1655C89.7931 97.1655 90.6973 95.8147 90.6973 93.8336V80.9562H87.1707V73.1217H98.1122V104.37H93.6814C93.5909 104.099 92.958 101.578 92.325 99.3267C91.7824 101.038 89.1601 105.09 85.1813 105.09H84.7292V105Z" fill="white"/>
<path d="M107.878 52.9502L114.57 80.5059V52.9502H121.713V104.28H115.384L107.878 74.7427V104.28H100.825V52.9502H107.878Z" fill="white"/>
<path d="M142.15 104.82H140.612C134.373 104.82 131.027 101.398 131.027 95.0943V84.8285H138.804V93.8336C138.804 96.175 139.527 97.4357 141.336 97.4357C143.235 97.4357 143.868 96.175 143.868 93.0232V91.8525C143.868 88.1604 143.506 86.8997 140.703 83.2076L135.729 76.8139C132.384 72.4914 131.389 69.2496 131.389 64.1166V62.4957C131.389 55.6518 134.825 52.5 141.065 52.5H142.511C148.932 52.5 151.464 55.2916 151.464 61.4151V69.8799H143.868V62.4957C143.868 60.7847 143.506 59.434 141.607 59.434C139.708 59.434 139.347 60.6046 139.347 63.036V63.9365C139.347 66.8182 139.889 68.4391 142.511 71.771L147.485 78.1647C151.011 82.7573 152.097 85.3688 152.097 91.1321V92.753C152.277 100.407 149.022 104.82 142.15 104.82Z" fill="white"/>
<path d="M167.379 93.8336V81.9468H175.065V93.8336C175.065 99.3268 173.256 104.91 165.66 104.91H163.942C156.075 104.91 154.267 99.2367 154.267 94.1038V62.7659C154.267 57.5429 156.527 52.5 163.671 52.5H165.48C174.07 52.5 175.065 58.1732 175.065 63.2161V72.4014H167.379V63.3962C167.379 61.1449 166.655 59.9743 164.756 59.9743C162.857 59.9743 162.315 61.0549 162.315 63.3962V93.9237C162.315 96.175 163.038 97.4357 164.847 97.4357C166.655 97.3456 167.379 95.9048 167.379 93.8336Z" fill="white"/>
<path d="M190.708 81.6766H185.373V104.28H177.597V52.9502H185.373V73.4819H190.708V52.9502H198.576V104.28H190.708V81.6766Z" fill="white"/>
<path d="M222.719 92.843C222.719 100.047 220.278 104.91 212.772 104.91H211.416C203.911 104.91 201.288 100.047 201.288 92.843V64.2067C201.288 57.0926 204.001 52.4099 211.326 52.4099H212.682C220.278 52.4099 222.719 57.0926 222.719 64.1166V92.843ZM214.762 63.8464C214.762 61.1449 213.858 59.8842 212.049 59.8842C210.06 59.8842 209.246 61.235 209.246 63.8464V93.3833C209.246 95.6346 209.879 97.3456 212.049 97.3456C214.129 97.3456 214.671 95.6346 214.671 93.3833V63.8464H214.762Z" fill="white"/>
<path d="M246.682 92.843C246.682 100.047 244.241 104.91 236.735 104.91H235.379C227.874 104.91 225.251 100.047 225.251 92.843V64.2067C225.251 57.0926 227.964 52.4099 235.289 52.4099H236.645C244.241 52.4099 246.682 57.0926 246.682 64.1166V92.843ZM238.634 63.8464C238.634 61.1449 237.73 59.8842 235.921 59.8842C233.932 59.8842 233.118 61.235 233.118 63.8464V93.3833C233.118 95.6346 233.751 97.3456 235.921 97.3456C238.001 97.3456 238.544 95.6346 238.544 93.3833V63.8464H238.634Z" fill="white"/>
<path d="M257.172 52.9502V96.355H266.757V104.28H249.305V52.9502H257.172Z" fill="white"/>
</g>
<defs>
<clipPath id="clip0_1_705">
<rect width="266.757" height="105" fill="white"/>
</clipPath>
</defs>
</svg>
