<svg width="135" height="215" viewBox="0 0 135 215" fill="none" xmlns="http://www.w3.org/2000/svg">
<path d="M111.69 142.84L89.42 107.22L67.2289 142.85L111.69 142.84Z" fill="#FF2741"/>
<path d="M89.42 107.23L67.14 71.6099L44.98 107.29L89.42 107.23Z" fill="#FF2741"/>
<path d="M89.53 36.0499L67.0099 0.399902L44.85 36.0798L89.53 36.0499Z" fill="#A40014"/>
<path d="M44.95 107.29L22.7599 71.6099L0.599976 107.23L44.95 107.29Z" fill="#A40014"/>
<path d="M67.3 71.7297L44.8599 36.0498L22.7 71.6698L67.3 71.7297Z" fill="#A40014"/>
<path d="M134.04 107.23L111.76 71.6099L89.3252 107.23H134.04Z" fill="#A40014"/>
<path d="M111.815 71.6698L89.5347 36.0498L67.1 71.6698H111.815Z" fill="#A40014"/>
<path d="M89.4999 178.48L67.2199 142.85L45.0599 178.48H89.4999Z" fill="#FF2741"/>
<path d="M67.2599 142.85L44.99 107.23L22.8199 142.85H67.2599Z" fill="#FF2741"/>
<path d="M111.663 142.849L89.3833 178.469L67.2184 142.849L111.663 142.849Z" fill="#A40014"/>
<path d="M89.4 178.47L67.12 214.1L44.95 178.47H89.4Z" fill="#A40014"/>
<path d="M89.42 107.23L67.23 142.85L44.95 107.28L89.42 107.23Z" fill="#FF2741"/>
<path d="M89.54 36.0498L67.23 71.6698L44.85 36.0498H89.54Z" fill="#FF2741"/>
<path d="M111.824 71.5996L89.38 107.17L67.1 71.5996L111.824 71.5996Z" fill="#FF2741"/>
<path d="M67.3243 71.5996L44.97 107.32L22.7 71.5996L67.3243 71.5996Z" fill="#FF2741"/>
<path d="M134.05 107.21L111.77 142.9L89.41 107.23L134.05 107.21Z" fill="#A40014"/>
<path d="M44.9601 107.28L22.77 142.9L0.599976 107.23L44.9601 107.28Z" fill="#A40014"/>
<path d="M67.221 142.85L44.9699 178.47L22.7999 142.85H67.221Z" fill="#A40014"/>
<path d="M0.5 107L23 71.5L45 107L44 108.5L3 111L0.5 107Z" fill="#A40014"/>
<path d="M89.5 107L99 92L122.5 89L134 107L131 112L101.5 126.5L89.5 107Z" fill="#A40014"/>
<path d="M42.5 103L57 71.5H72.5L97.6 94L89.5 107L90.5 109L82.5 143H61.5L36 121.5L45 107L42.5 103Z" fill="#FF2741"/>
</svg>
