<svg width="134" height="143" viewBox="0 0 134 143" fill="none" xmlns="http://www.w3.org/2000/svg">
<path d="M66.7401 71.24L44.4601 35.6199L22.29 71.24H66.7401Z" fill="#A40014"/>
<path d="M88.8999 35.6199L66.62 0L44.46 35.6199H88.8999Z" fill="#A40014"/>
<path d="M88.69 106.85L66.41 71.22L44.25 106.85H88.69Z" fill="#A40014"/>
<path d="M44.45 106.86L22.17 71.24L0 106.86H44.45Z" fill="#A40014"/>
<path d="M133.12 106.85L110.84 71.23L88.6699 106.85H133.12Z" fill="#A40014"/>
<path d="M111.17 71.23L88.8999 35.6099L66.73 71.23H111.17Z" fill="#A40014"/>
<path d="M111 71.23L88.7301 106.85L66.5601 71.23H111Z" fill="#FF2741"/>
<path d="M133.33 35.5999L111.06 71.22L88.8899 35.5999H133.33Z" fill="#FF2741"/>
<path d="M44.45 35.6199L22.17 71.24L0.0100098 35.6199H44.45Z" fill="#FF2741"/>
<path d="M66.62 71.24L44.34 106.86L22.1699 71.24H66.62Z" fill="#FF2741"/>
<path d="M88.8 106.84L66.53 142.47L44.36 106.84H88.8Z" fill="#FF2741"/>
<path d="M88.8999 35.6099L66.62 71.23L44.46 35.6099H88.8999Z" fill="#FF2741"/>
</svg>
