<svg width="1366" height="405" viewBox="0 0 1366 405" fill="none" xmlns="http://www.w3.org/2000/svg">
<g clip-path="url(#clip0_208_12)">
<path d="M594.05 113.85L571.77 78.23L549.61 113.85H594.05Z" fill="#1C35C6"/>
<path d="M571.78 78.24L549.5 42.6201L527.33 78.24H571.78Z" fill="#1C35C6"/>
<path d="M571.86 149.49L549.59 113.87L527.42 149.49H571.86Z" fill="#1C35C6"/>
<path d="M549.62 113.86L527.35 78.2402L505.18 113.86H549.62Z" fill="#1C35C6"/>
<path d="M571.79 220.72L549.51 185.09L527.34 220.72H571.79Z" fill="#1C35C6"/>
<path d="M594.03 113.87L571.75 149.49L549.59 113.87H594.03Z" fill="#007BED"/>
<path d="M571.75 149.49L549.48 185.11L527.31 149.49H571.75Z" fill="#007BED"/>
<path d="M571.75 78.29L549.48 113.92L527.31 78.29H571.75Z" fill="#007BED"/>
<path d="M549.6 113.86L527.32 149.48L505.16 113.86H549.6Z" fill="#007BED"/>
<path d="M907.39 115.24L885.11 79.6201L862.95 115.24H907.39Z" fill="#1C35C6"/>
<path d="M885.12 79.6199L862.84 44L840.67 79.6199H885.12Z" fill="#1C35C6"/>
<path d="M885.2 150.87L862.92 115.25L840.76 150.87H885.2Z" fill="#1C35C6"/>
<path d="M862.96 115.25L840.68 79.6299L818.52 115.25H862.96Z" fill="#1C35C6"/>
<path d="M885.13 222.1L862.85 186.48L840.68 222.1H885.13Z" fill="#1C35C6"/>
<path d="M907.37 115.25L885.09 150.87L862.92 115.25H907.37Z" fill="#007BED"/>
<path d="M885.09 150.87L862.82 186.49L840.65 150.87H885.09Z" fill="#007BED"/>
<path d="M885.09 79.6797L862.82 115.3L840.65 79.6797H885.09Z" fill="#007BED"/>
<path d="M862.94 115.24L840.66 150.86L818.5 115.24H862.94Z" fill="#007BED"/>
<path d="M461.52 255.01L439.24 219.39L417.07 255.01H461.52Z" fill="#1C35C6"/>
<path d="M439.24 219.4L416.97 183.78L394.8 219.4H439.24Z" fill="#1C35C6"/>
<path d="M439.33 290.65L417.05 255.03L394.89 290.65H439.33Z" fill="#1C35C6"/>
<path d="M417.09 255.021L394.81 219.4L372.65 255.021H417.09Z" fill="#1C35C6"/>
<path d="M439.25 361.87L416.98 326.25L394.81 361.87H439.25Z" fill="#1C35C6"/>
<path d="M461.5 255.03L439.22 290.65L417.05 255.03H461.5Z" fill="#007BED"/>
<path d="M439.22 290.64L416.94 326.27L394.78 290.64H439.22Z" fill="#007BED"/>
<path d="M439.22 219.45L416.94 255.07L394.78 219.45H439.22Z" fill="#007BED"/>
<path d="M417.07 255.021L394.79 290.64L372.62 255.021H417.07Z" fill="#007BED"/>
<path d="M261.4 220.03L239.12 184.41L216.95 220.03H261.4Z" fill="#63179F"/>
<path d="M239.12 184.42L216.85 148.8L194.68 184.42H239.12Z" fill="#63179F"/>
<path d="M239.21 255.67L216.93 220.05L194.77 255.67H239.21Z" fill="#63179F"/>
<path d="M216.97 220.04L194.69 184.42L172.53 220.04H216.97Z" fill="#63179F"/>
<path d="M261.38 220.05L239.1 255.67L216.93 220.05H261.38Z" fill="#A842F9"/>
<path d="M239.1 255.66L216.82 291.29L194.66 255.66H239.1Z" fill="#A842F9"/>
<path d="M239.1 184.47L216.82 220.09L194.66 184.47H239.1Z" fill="#A842F9"/>
<path d="M216.95 220.04L194.67 255.66L172.5 220.04H216.95Z" fill="#A842F9"/>
<path d="M1198.4 224.53L1176.12 188.91L1153.95 224.53H1198.4Z" fill="#63179F"/>
<path d="M1176.12 188.92L1153.85 153.3L1131.68 188.92H1176.12Z" fill="#63179F"/>
<path d="M1176.21 260.17L1153.93 224.55L1131.77 260.17H1176.21Z" fill="#63179F"/>
<path d="M1153.97 224.54L1131.69 188.92L1109.53 224.54H1153.97Z" fill="#63179F"/>
<path d="M1198.38 224.55L1176.1 260.17L1153.93 224.55H1198.38Z" fill="#A842F9"/>
<path d="M1176.1 260.16L1153.82 295.79L1131.66 260.16H1176.1Z" fill="#A842F9"/>
<path d="M1176.1 188.97L1153.82 224.59L1131.66 188.97H1176.1Z" fill="#A842F9"/>
<path d="M1153.95 224.54L1131.67 260.16L1109.5 224.54H1153.95Z" fill="#A842F9"/>
<path d="M105.21 185.63L82.93 150.01L60.77 185.63H105.21Z" fill="#FF2741"/>
<path d="M127.38 150.01L105.1 185.63L82.9299 150.01H127.38Z" fill="#A40014"/>
<path d="M105.1 185.62L82.8202 221.25L60.6602 185.62H105.1Z" fill="#A40014"/>
<path d="M82.95 150L60.67 185.62L38.5 150H82.95Z" fill="#A40014"/>
<path d="M1307.91 186.63L1285.63 151.01L1263.47 186.63H1307.91Z" fill="#FF2741"/>
<path d="M1330.08 151.01L1307.8 186.63L1285.63 151.01H1330.08Z" fill="#A40014"/>
<path d="M1307.8 186.62L1285.52 222.25L1263.36 186.62H1307.8Z" fill="#A40014"/>
<path d="M1285.65 151L1263.37 186.62L1241.2 151H1285.65Z" fill="#A40014"/>
<path d="M929.74 295.24L907.46 259.62L885.29 295.24H929.74Z" fill="#A40014"/>
<path d="M951.9 259.62L929.62 224L907.46 259.62H951.9Z" fill="#A40014"/>
<path d="M951.69 330.85L929.41 295.22L907.25 330.85H951.69Z" fill="#A40014"/>
<path d="M907.45 330.86L885.17 295.24L863 330.86H907.45Z" fill="#A40014"/>
<path d="M996.12 330.85L973.84 295.23L951.67 330.85H996.12Z" fill="#A40014"/>
<path d="M974.17 295.23L951.9 259.61L929.73 295.23H974.17Z" fill="#A40014"/>
<path d="M974 295.23L951.73 330.85L929.56 295.23H974Z" fill="#FF2741"/>
<path d="M996.33 259.6L974.06 295.22L951.89 259.6H996.33Z" fill="#FF2741"/>
<path d="M907.45 259.62L885.17 295.24L863.01 259.62H907.45Z" fill="#FF2741"/>
<path d="M929.62 295.24L907.34 330.86L885.17 295.24H929.62Z" fill="#FF2741"/>
<path d="M951.8 330.84L929.53 366.47L907.36 330.84H951.8Z" fill="#FF2741"/>
<path d="M951.9 259.61L929.62 295.23L907.46 259.61H951.9Z" fill="#FF2741"/>
<path d="M708.43 148.25L686.15 112.62L663.86 148.24L708.43 148.25Z" fill="#A40014"/>
<path d="M730.6 112.62L708.32 77L686.15 112.62H730.6Z" fill="#A40014"/>
<path d="M730.38 183.85L708.11 148.23L685.94 183.85H730.38Z" fill="#A40014"/>
<path d="M686.14 183.86L663.86 148.24L641.7 183.86H686.14Z" fill="#A40014"/>
<path d="M774.81 183.86L752.53 148.23L730.37 183.86H774.81Z" fill="#A40014"/>
<path d="M752.87 148.23L730.59 112.61L708.42 148.23H752.87Z" fill="#A40014"/>
<path d="M752.7 148.23L730.42 183.86L708.25 148.23H752.7Z" fill="#FF2741"/>
<path d="M775.03 112.61L752.75 148.23L730.58 112.61H775.03Z" fill="#FF2741"/>
<path d="M686.14 112.63L663.87 148.25L641.7 112.63H686.14Z" fill="#FF2741"/>
<path d="M708.31 148.25L686.03 183.87L663.87 148.25H708.31Z" fill="#FF2741"/>
<path d="M730.5 183.85L708.22 219.47L686.05 183.85H730.5Z" fill="#FF2741"/>
<path d="M730.59 112.61L708.31 148.23L686.15 112.61H730.59Z" fill="#FF2741"/>
<path d="M773.12 258.02L750.9 293.77L728.79 258.02H773.12Z" fill="#A842F9"/>
<path d="M750.97 293.78L728.75 258.03L706.64 293.78H750.97Z" fill="#63179F"/>
<path d="M662.15 293.76L639.93 258.01L617.82 293.76H662.15Z" fill="#63179F"/>
<path d="M640.02 329.52L617.8 293.77L595.69 329.52H640.02Z" fill="#63179F"/>
<path d="M617.84 293.77L595.35 258L573 293.77H617.84Z" fill="#63179F"/>
<path d="M728.56 401L706.34 365.26L684.11 401H728.56Z" fill="#63179F"/>
<path d="M706.35 365.25L684.13 329.5L662.02 365.25H706.35Z" fill="#63179F"/>
<path d="M662.02 365.25L639.91 329.51L617.8 365.26L662.02 365.25Z" fill="#63179F"/>
<path d="M750.66 365.25L728.44 329.5L706.33 365.25H750.66Z" fill="#63179F"/>
<path d="M728.74 329.5L706.52 293.75L684.42 329.5H728.74Z" fill="#63179F"/>
<path d="M684.23 401L662.01 365.25L639.79 400.99L684.23 401Z" fill="#63179F"/>
<path d="M772.77 329.5L750.55 365.25L728.44 329.5H772.77Z" fill="#A842F9"/>
<path d="M728.56 329.51L706.34 365.26L684.23 329.51H728.56Z" fill="#A842F9"/>
<path d="M750.95 293.75L728.73 329.5L706.62 293.75H750.95Z" fill="#A842F9"/>
<path d="M662.13 293.77L639.91 329.52L617.8 293.77H662.13Z" fill="#A842F9"/>
<path d="M639.91 329.52L617.69 365.27L595.58 329.52H639.91Z" fill="#A842F9"/>
<path d="M639.93 258.01L617.82 293.76L595.35 258L639.93 258.01Z" fill="#A842F9"/>
<path d="M684.24 329.52L662.02 365.27L639.91 329.52H684.24Z" fill="#A842F9"/>
<path d="M662.01 365.25L639.79 400.99L617.68 365.25H662.01Z" fill="#A842F9"/>
<path d="M706.33 365.25L684.11 401L662.01 365.25H706.33Z" fill="#A842F9"/>
<path d="M750.67 365.26L728.56 401L706.34 365.26H750.67Z" fill="#A842F9"/>
<path d="M439.53 6.12988L417.31 41.8798L395.2 6.12988H439.53Z" fill="#A842F9"/>
<path d="M417.38 41.8895L395.16 6.13965L373.05 41.8895H417.38Z" fill="#63179F"/>
<path d="M328.56 41.8702L306.34 6.12012L284.23 41.8702H328.56Z" fill="#63179F"/>
<path d="M306.43 77.6299L284.21 41.8799L262.1 77.6299H306.43Z" fill="#63179F"/>
<path d="M284.25 41.8798L261.76 6.10986L239.41 41.8798H284.25Z" fill="#63179F"/>
<path d="M394.97 149.11L372.75 113.37L350.52 149.11H394.97Z" fill="#63179F"/>
<path d="M372.76 113.36L350.54 77.6099L328.43 113.36H372.76Z" fill="#63179F"/>
<path d="M328.43 113.36L306.32 77.6201L284.21 113.37L328.43 113.36Z" fill="#63179F"/>
<path d="M417.07 113.36L394.85 77.6099L372.74 113.36H417.07Z" fill="#63179F"/>
<path d="M395.15 77.6099L372.93 41.8599L350.82 77.6099H395.15Z" fill="#63179F"/>
<path d="M350.63 149.11L328.42 113.36L306.2 149.1L350.63 149.11Z" fill="#63179F"/>
<path d="M439.18 77.6099L416.96 113.36L394.85 77.6099H439.18Z" fill="#A842F9"/>
<path d="M394.97 77.6201L372.75 113.37L350.64 77.6201H394.97Z" fill="#A842F9"/>
<path d="M417.36 41.8599L395.14 77.6099L373.03 41.8599H417.36Z" fill="#A842F9"/>
<path d="M328.54 41.8799L306.31 77.6299L284.21 41.8799H328.54Z" fill="#A842F9"/>
<path d="M306.32 77.6299L284.1 113.38L261.99 77.6299H306.32Z" fill="#A842F9"/>
<path d="M306.34 6.11987L284.23 41.87L261.76 6.10986L306.34 6.11987Z" fill="#A842F9"/>
<path d="M350.64 77.6299L328.43 113.38L306.32 77.6299H350.64Z" fill="#A842F9"/>
<path d="M328.42 113.36L306.2 149.11L284.09 113.36H328.42Z" fill="#A842F9"/>
<path d="M372.74 113.36L350.52 149.11L328.42 113.36H372.74Z" fill="#A842F9"/>
<path d="M417.07 113.37L394.97 149.11L372.75 113.37H417.07Z" fill="#A842F9"/>
</g>
<defs>
<clipPath id="clip0_208_12">
<rect width="1366" height="405" fill="white"/>
</clipPath>
</defs>
</svg>
