<svg width="403" height="328" viewBox="0 0 403 328" fill="none" xmlns="http://www.w3.org/2000/svg">
<path d="M91.49 93.98H87.9L114.67 51.23L88.86 78.29H85.09L123.56 37.3201H126.96L91.49 93.98Z" fill="white"/>
<path d="M159.59 50.0901H162.79L168.96 40.55H182.94L189 51.45L150.94 93.9299L183.99 94L185.71 91.3999L157.23 91.26L192.35 51.45L184.47 37.74H167.41L159.59 50.0901Z" fill="white"/>
<path d="M272.68 67.3401L258.62 67.0801L265.77 78.1599L256.19 93.98L237.34 93.8501L229.31 78.46L232.84 78.47L239.06 90.9099L254.86 91.1799L262.71 78.1799L254.32 65.26L253.59 64.1699L271.06 64.46L279.01 51.74L272.16 40.29L256.34 40.0901L258.32 37.23L273.84 37.3401L282.51 51.79L272.68 67.3401Z" fill="white"/>
<path d="M353.51 139.07L318.46 194.59L314.94 194.58L341.4 152.66L300.29 194.53L296.21 194.51L350.2 139.05L353.51 139.07Z" fill="white"/>
<path d="M313.694 178.703L313.682 181.683L326.192 181.731L326.204 178.751L313.694 178.703Z" fill="white"/>
<path d="M42.21 194.95L77.24 139.91L113.9 139.55L112.09 142.46L78.86 142.84L47.7 191.99L80.16 192.43L78.25 195.37L42.21 194.95Z" fill="white"/>
<path d="M61.74 168.89L61.73 165.96L82.35 165.88L80.5 168.82L61.74 168.89Z" fill="white"/>
<path d="M153.55 138.34L118.38 194.52H114.83L141.5 151.93L101.5 194.52H97.38L150.15 138.34H153.55Z" fill="white"/>
<path d="M155.13 194.33L146.13 180.33L173.13 137.98H190.31L198.25 150.98L171.73 194.23L155.13 194.33ZM149.5 180.33L156.71 191.49L170.24 191.44L194.94 151.03L188.84 140.81H174.77L149.5 180.33Z" fill="white"/>
<path d="M234.85 164.9V167.91H232.23L218.81 167.9L208.76 151.92L217.68 137.99H221.26L212.32 151.94L220.48 164.89L234.13 164.9H234.85Z" fill="white"/>
<path d="M257.47 137.99L222.01 194.25H218.44L235.05 167.91L236.94 164.9H236.95L253.9 137.99H257.47Z" fill="white"/>
<path d="M282.95 138.35L270.21 158.55L267.88 162.25L266.83 163.93L265.46 166.1L247.49 194.61H243.92L260.52 168.27L260.68 168.02L262.42 165.26H262.43L264.09 162.64L264.26 162.35L266.69 158.49L279.38 138.35H282.95Z" fill="white"/>
<path d="M305.3 138.35L268.14 163.06L266.83 163.93L265.13 165.06L260.68 168.02L262.42 165.26H262.43L264.09 162.64L264.3 162.49L267.32 160.48L270.21 158.55L300.6 138.35H305.3Z" fill="white"/>
<path d="M278.61 194.55L274.73 194.6L265.46 166.1L265.13 165.06L264.3 162.49L264.26 162.35L266.69 158.49L267.32 160.48L267.88 162.25L268.14 163.06L278.61 194.55Z" fill="white"/>
<path d="M118.9 235.28L117.14 238.25L98.66 238.26L65.14 290.89H61.64L97.01 235.28H118.9Z" fill="white"/>
<path d="M121.51 291.07L112.51 277.07L139.51 234.72H156.69L164.63 247.72L138.17 291L121.51 291.07ZM115.88 277.07L123.09 288.23L136.62 288.18L161.32 247.77L155.22 237.55H141.14L115.88 277.07Z" fill="white"/>
<path d="M161.53 291.77L158.66 291.68L193.73 235.68L212.73 235.61L222.89 251.25L213.1 266.88L177.67 266.76L161.53 291.77ZM179.53 263.84L211.53 263.95L219.53 251.23L211.19 238.5L195.38 238.56L179.53 263.84Z" fill="white"/>
<path d="M92.14 95.1599H85.78L107.52 60.4299L89.36 79.4299H82.36L123.05 36.1001H129.05L92.14 95.1599ZM90.03 92.8101H90.84L124.84 38.5H124.08L87.82 77.1201H88.37L121.81 42L90.03 92.8101Z" fill="white"/>
<path d="M184.8 95.53L147.53 95.4399L187.14 51.25L182.05 42.0801H169.79L163.63 51.6201H156.82L166.57 36.22H185.35L194.22 51.6299L160.59 89.75L188.55 89.8899L184.8 95.53Z" fill="white"/>
<path d="M257 95.47L236.42 95.3201L226.86 77H233.76L239.98 89.46L253.98 89.7L261 78.2L250.82 62.6399L270.29 62.97L277.29 51.73L271.29 41.73L253.52 41.51L257.52 35.72L274.65 35.8501L284.22 51.8L273.46 68.8L261.34 68.5701L267.49 78.1001L257 95.47ZM231.73 79.95L235.73 87.6101L231.9 79.95H231.73ZM275.73 43.3401L280.73 51.76L278.03 56.0801L280.75 51.77L275.73 43.3401Z" fill="white"/>
<path d="M119.26 95.26L110.92 108.56L104.07 108.42L112.41 95.26L109.34 89.6899L116.53 89.8701L119.26 95.26Z" fill="white"/>
<path d="M210.99 95.26L202.66 108.56L195.8 108.42L204.14 95.26L201.08 89.6899L208.26 89.8701L210.99 95.26Z" fill="white"/>
<path d="M344.01 63.6599L340.82 69.4299L298.3 69.51L301.98 63.6499L344.01 63.6599Z" fill="white"/>
<path d="M348.1 198.35L339.77 211.64L332.91 211.5L341.25 198.35L338.19 192.77L345.38 192.96L348.1 198.35Z" fill="white"/>
<path d="M319.26 196H312.32L333 163.33L300.9 196H292.8L349.59 137.65H356.14L319.26 196ZM317.57 193.1H317.67L350.89 140.46H350.8L299.63 193.03H299.68L349.85 142L317.57 193.1Z" fill="white"/>
<path d="M327.57 183L312.17 182.94V177.07L327.57 177.13V183ZM315.08 180.06H324.69V180H315.08V180.06Z" fill="white"/>
<path d="M79 196.8L39.61 196.34L76.42 138.49L116.42 138.09L112.84 143.87L79.6 144.25L50.22 190.6L82.71 191.03L79 196.8ZM44.77 193.55L77.47 193.93L77.54 193.82L45.12 193.39L78.05 141.39L111.28 141.01L77.98 141.34L44.77 193.55Z" fill="white"/>
<path d="M60.32 170.32V164.54L84.95 164.45L81.3 170.24L60.32 170.32ZM63.16 167.38V167.46L79.71 167.4L79.76 167.32L63.16 167.38Z" fill="white"/>
<path d="M119.19 196H112.19L132.31 163.87L102.13 196H94L149.51 136.9H156.19L119.19 196ZM117.47 193.08H117.57L150.91 139.82H150.78L100.78 193.08H100.89L140.46 150.95L142.76 152.73L117.47 193.08Z" fill="white"/>
<path d="M154.38 195.71L144.54 180.32L172.44 136.6H191.15L199.93 151.02L172.57 195.64L154.38 195.71ZM147.81 180.32L155.89 192.95L171.03 192.89L196.7 151L189.6 139.34H174L147.81 180.32ZM155.97 192.88L147.87 180.35L174 139.42H189.61L196.54 151.03L171 192.81L155.97 192.88ZM151.14 180.34L157.46 190.12H169.46L193.32 151.12L188.05 142.28H175.52L151.14 180.34Z" fill="white"/>
<path d="M236.31 169.37H218L207 151.92L216.85 136.53H223.91L214.03 151.95L221.26 163.43H236.26L236.31 169.37ZM219.61 166.44H233.38V166.36H219.67L210.59 151.94L218.59 139.46H218.49L210.49 151.93L219.61 166.44Z" fill="white"/>
<path d="M222.81 195.71H215.81L253.11 136.52H260.11L222.81 195.71ZM221.09 192.78H221.19L254.81 139.45H254.7L221.09 192.78Z" fill="white"/>
<path d="M248.3 196.07H241.3L278.6 136.88H285.6L248.3 196.07ZM246.58 193.14H246.69L280.31 139.81H280.2L246.58 193.14Z" fill="white"/>
<path d="M255.79 173.03L263.01 161.59L269.4 157.34L300.16 136.89H310.14L255.79 173.03Z" fill="white"/>
<path d="M273.67 196.08L262.67 162.16L267.16 155.05L269.56 162.62L280.63 196L273.67 196.08ZM265.86 162.56L266.86 165.66L275.8 193.13H276.59L266.25 161.95L265.86 162.56Z" fill="white"/>
<path d="M65.94 292.34H59L96.22 233.84H121.44L118 239.7H99.46L65.94 292.34ZM64.27 289.45H64.35L97.87 236.81H116.32V236.73H97.81L64.27 289.45Z" fill="white"/>
<path d="M323.77 233.83L296.27 277.78H289.34L316.78 233.83H323.77Z" fill="white"/>
<path d="M294.68 233.35L257.64 292.27H250L273.54 256.05L239.49 292.19L213.98 292.1L248.48 233.61H255.36L224.99 286.25L236.92 286.28L288.15 233.35H294.68Z" fill="white"/>
<path d="M120.76 292.45L110.92 277.06L138.82 233.34H157.53L166.31 247.76L138.95 292.38L120.76 292.45ZM114.19 277.06L122.27 289.69L137.41 289.63L163.09 247.75L155.99 236.09H140.33L114.19 277.06ZM122.35 289.62L114.25 277.09L140.4 236.18H156L162.93 247.79L137.4 289.57L122.35 289.62ZM117.52 277.08L123.84 286.86H135.84L159.7 247.86L154.43 239.02H141.9L117.52 277.08Z" fill="white"/>
<path d="M291.03 287.52L287.51 293.31L280.49 293.33L284.18 287.52H291.03Z" fill="white"/>
<path d="M162.3 293.25L156.08 293.05L192.92 234.21L213.55 234.13L224.65 251.22L213.94 268.32L178.49 268.2L162.3 293.25ZM176.9 265.25L176.45 265.97L176.91 265.25L192.67 265.3L176.9 265.25ZM212.33 265.37L214.64 261.67L212.33 265.37ZM182.13 262.37L210.72 262.47L217.72 251.22L210.32 239.93L196.1 239.99L182.13 262.37ZM211.93 237.02L216.24 243.6L211.93 237.02ZM194.53 237.09H203.6H194.53Z" fill="white"/>
</svg>
