<svg width="1440" height="2620" viewBox="0 0 1440 2620" fill="none" xmlns="http://www.w3.org/2000/svg">
<g clip-path="url(#clip0_233_341)">
<path d="M586.61 747.19L520.1 853.99L453.28 747.19H586.61Z" fill="#33AF00"/>
<path d="M653.4 853.99L586.6 747.19L520.06 853.99H653.4Z" fill="#006602"/>
<path d="M786.41 854.05L719.94 747.21L653.4 854.01L786.41 854.05Z" fill="#006602"/>
<path d="M786.41 640.38L719.62 533.58L653.08 640.38H786.41Z" fill="#006602"/>
<path d="M920.07 854.06L853.25 747.17L786.41 854.06H920.07Z" fill="#006602"/>
<path d="M853.26 747.19L786.47 640.39L719.93 747.19H853.26Z" fill="#006602"/>
<path d="M1187.16 1281.25L1120.37 1174.44L1053.83 1281.25H1187.16Z" fill="#006602"/>
<path d="M719.98 747.14L653.18 853.95L586.37 747.14H719.98Z" fill="#33AF00"/>
<path d="M853.25 747.17L786.41 854.05L719.87 747.2L853.25 747.17Z" fill="#33AF00"/>
<path d="M986.9 747.17L920.07 854.05L853.52 747.2L986.9 747.17Z" fill="#33AF00"/>
<path d="M853.23 960.85L786.41 854.05L719.45 960.87L853.23 960.85Z" fill="#006602"/>
<path d="M853.09 960.87L786.35 1067.71L719.47 960.87H853.09Z" fill="#33AF00"/>
<path d="M920.03 854.05L853.23 960.85L786.41 854.05H920.03Z" fill="#33AF00"/>
<path d="M786.47 640.39L719.94 747.19L653.12 640.39H786.47Z" fill="#33AF00"/>
<path d="M786.41 854.05L719.47 960.87L653.06 854.03L786.41 854.05Z" fill="#33AF00"/>
<path d="M786.48 1067.74L719.36 960.86L652.58 1068.15L786.48 1067.74Z" fill="#006602"/>
<path d="M786.36 1067.71L719.75 1173.79L652.58 1068.15L786.36 1067.71Z" fill="#33AF00"/>
<path d="M786.95 1281.29L719.74 1173.79L652.89 1281L786.95 1281.29Z" fill="#006602"/>
<path d="M786.63 1280.96L719.9 1387.88L652.89 1281L786.63 1280.96Z" fill="#33AF00"/>
<path d="M1053.57 1067.65L986.78 1174.45L919.96 1067.65H1053.57Z" fill="#33AF00"/>
<path d="M652.58 1068.15L586.22 960.85L519.64 1067.68L652.58 1068.15Z" fill="#006602"/>
<path d="M652.58 1068.15L585.99 1174.31L519.48 1067.52L652.58 1068.15Z" fill="#33AF00"/>
<path d="M719.47 960.88L653.06 854.03L586.22 960.85L719.47 960.88Z" fill="#006602"/>
<path d="M719.34 960.92L652.58 1068.15L585.86 960.87L719.34 960.92Z" fill="#33AF00"/>
<path d="M586.42 960.87L519.69 1067.71L452.81 960.87H586.42Z" fill="#33AF00"/>
<path d="M519.81 1067.74L452.69 960.86L385.91 1068.15L519.81 1067.74Z" fill="#006602"/>
<path d="M452.67 960.92L385.91 1068.15L319.19 960.87L452.67 960.92Z" fill="#33AF00"/>
<path d="M719.92 1173.82L652.61 1068.09L585.99 1174.31L719.92 1173.82Z" fill="#006602"/>
<path d="M519.73 1067.59L452.57 1174.41L385.75 1067.61L519.73 1067.59Z" fill="#33AF00"/>
<path d="M519.37 1281.23L452.57 1388.03L385.75 1281.23H519.37Z" fill="#33AF00"/>
<path d="M586.06 1174.32L519.54 1067.6L452.32 1174.4L586.06 1174.32Z" fill="#006602"/>
<path d="M986.7 960.85L920.13 1067.65L853.09 960.85H986.7Z" fill="#33AF00"/>
<path d="M920.15 1067.67L853.09 960.73L786.36 1067.65L920.15 1067.67Z" fill="#006602"/>
<path d="M1120.3 960.85L1053.5 1067.65L986.68 960.85H1120.3Z" fill="#33AF00"/>
<path d="M1053.5 1067.67L986.7 960.87L920.07 1067.65L1053.5 1067.67Z" fill="#006602"/>
<path d="M920.13 1067.65L853.18 1174.45L786.36 1067.65H920.13Z" fill="#33AF00"/>
<path d="M1120.39 1174.44L1053.6 1281.25L986.78 1174.44H1120.39Z" fill="#33AF00"/>
<path d="M1253.91 1174.44L1187.11 1281.25L1120.29 1174.44H1253.91Z" fill="#33AF00"/>
<path d="M1054.56 1494.69L987.33 1387.87L920.79 1494.67L1054.56 1494.69Z" fill="#006602"/>
<path d="M1054.92 1494.63L987.21 1601.43L920.39 1494.63H1054.92Z" fill="#33AF00"/>
<path d="M1188.62 1495.07L1120.72 1601.39L1053.9 1494.59L1188.62 1495.07Z" fill="#33AF00"/>
<path d="M853.06 1173.71L786.66 1066.95L719.71 1173.83L853.06 1173.71Z" fill="#006602"/>
<path d="M652.98 1281.23L586 1174.29L519.37 1281.23H652.98Z" fill="#006602"/>
<path d="M519.38 1281.23L452.59 1174.43L386.05 1281.23H519.38Z" fill="#006602"/>
<path d="M652.98 1281.23L586.18 1388.02L519.36 1281.22L652.98 1281.23Z" fill="#33AF00"/>
<path d="M586.16 1388.03L519.37 1281.23L452.43 1388.1L586.16 1388.03Z" fill="#006602"/>
<path d="M719.9 1387.88L652.9 1281.02L586.05 1387.99L719.9 1387.88Z" fill="#006602"/>
<path d="M719.9 1387.87L652.75 1494.81L585.68 1387.76L719.9 1387.87Z" fill="#33AF00"/>
<path d="M519.42 1494.8L452.63 1601.6L386.09 1494.8H519.42Z" fill="#33AF00"/>
<path d="M385.94 1494.8L320.56 1601.6L254.02 1494.8H385.94Z" fill="#33AF00"/>
<path d="M385.99 1281.21L319.2 1388.02L252.38 1281.21H385.99Z" fill="#33AF00"/>
<path d="M452.77 1388L385.98 1281.2L319.04 1388.07L452.77 1388Z" fill="#006602"/>
<path d="M452.77 1388L386.09 1494.8L319.27 1388H452.77Z" fill="#33AF00"/>
<path d="M786.69 1494.67L719.9 1387.87L652.75 1494.81L786.69 1494.67Z" fill="#006602"/>
<path d="M1254.97 1387.86L1188.49 1495.23L1120.22 1387.79L1254.97 1387.86Z" fill="#33AF00"/>
<path d="M1120.26 1387.8L1054.21 1494.52L986.64 1387.8H1120.26Z" fill="#33AF00"/>
<path d="M1188.49 1495.23L1120.26 1387.8L1053.23 1494.62L1188.49 1495.23Z" fill="#006602"/>
<path d="M920.21 1280.97L853.41 1387.77L786.59 1280.97H920.21Z" fill="#33AF00"/>
<path d="M853.52 1387.88L786.69 1494.67L719.91 1387.88H853.52Z" fill="#33AF00"/>
<path d="M987.14 1387.88L920.3 1494.67L853.52 1387.88H987.14Z" fill="#33AF00"/>
<path d="M853.46 1387.87L786.59 1280.96L719.99 1387.84L853.46 1387.87Z" fill="#006602"/>
<path d="M987.07 1387.8L920.27 1281L853.33 1387.87L987.07 1387.8Z" fill="#006602"/>
<path d="M1053.66 1281L986.87 1387.8L920.05 1281H1053.66Z" fill="#33AF00"/>
<path d="M1187.22 1281L1120.43 1387.8L1053.61 1281H1187.22Z" fill="#33AF00"/>
<path d="M1120.45 1387.81L1053.65 1281.01L986.71 1387.88L1120.45 1387.81Z" fill="#006602"/>
<path d="M920.32 1494.69L853.52 1387.88L786.22 1494.69H920.32Z" fill="#006602"/>
<path d="M786.69 1494.67L719.78 1601.6L652.96 1494.79L786.69 1494.67Z" fill="#33AF00"/>
<path d="M653.03 1494.8L586.24 1601.6L519.42 1494.8H653.03Z" fill="#33AF00"/>
<path d="M719.78 1601.6L652.99 1494.79L586.04 1601.67L719.78 1601.6Z" fill="#006602"/>
<path d="M920.33 1494.7L853.54 1601.5L786.72 1494.7H920.33Z" fill="#33AF00"/>
<path d="M853.48 1601.47L786.69 1494.67L719.75 1601.55L853.48 1601.47Z" fill="#006602"/>
<path d="M1121.7 1602.26L1054.01 1708.21L987.19 1601.41L1121.7 1602.26Z" fill="#33AF00"/>
<path d="M987.21 1601.43L920.41 1708.24L853.59 1601.43H987.21Z" fill="#33AF00"/>
<path d="M1054 1708.24L987.21 1601.43L920.26 1708.31L1054 1708.24Z" fill="#006602"/>
<path d="M920.54 1708.24L853.75 1601.43L786.8 1708.31L920.54 1708.24Z" fill="#006602"/>
<path d="M1120.74 1602.12L1053.9 1494.59L987.21 1601.43L1120.74 1602.12Z" fill="#006602"/>
<path d="M987.21 1601.43L920.41 1494.63L853.47 1601.51L987.21 1601.43Z" fill="#006602"/>
<path d="M986.92 1174.38L920.12 1067.58L853.18 1174.45L986.92 1174.38Z" fill="#006602"/>
<path d="M385.98 1281.21L319.18 1174.41L252.24 1281.29L385.98 1281.21Z" fill="#006602"/>
<path d="M452.79 1601.72L386 1494.92L319.64 1600.34L452.79 1601.72Z" fill="#006602"/>
<path d="M585.97 1601.72L519.42 1494.8L452.23 1601.8L585.97 1601.72Z" fill="#006602"/>
<path d="M719.76 1173.79L652.88 1281.02L585.99 1174.31L719.76 1173.79Z" fill="#33AF00"/>
<path d="M1053.99 1281.29L986.78 1173.79L919.93 1281L1053.99 1281.29Z" fill="#006602"/>
<path d="M920.24 1280.97L853.26 1174.03L786.63 1280.96L920.24 1280.97Z" fill="#006602"/>
<path d="M986.8 1173.79L919.92 1281.02L853.03 1174.31L986.8 1173.79Z" fill="#33AF00"/>
<path d="M853.36 1173.79L786.57 1280.74L719.75 1173.79H853.36Z" fill="#33AF00"/>
<path d="M586.03 1174.33L519.37 1281.23L452.5 1174.33H586.03Z" fill="#33AF00"/>
<path d="M452.96 1174.33L386.3 1281.23L319.43 1174.33H452.96Z" fill="#33AF00"/>
<path d="M318.92 1174.33L252.26 1281.23L185.39 1174.33H318.92Z" fill="#33AF00"/>
<path d="M652.75 1494.81L585.96 1388.01L519.42 1494.81H652.75Z" fill="#006602"/>
<path d="M853.68 1601.46L787.08 1708.34L720.06 1601.46H853.68Z" fill="#33AF00"/>
<path d="M720.13 1601.61L653.34 1708.41L586.52 1601.61H720.13Z" fill="#33AF00"/>
<path d="M787.08 1708.34L720.28 1601.54L653.34 1708.41L787.08 1708.34Z" fill="#006602"/>
<path d="M586.13 1601.61L519.34 1708.41L452.52 1601.61H586.13Z" fill="#33AF00"/>
<path d="M653.08 1708.34L586.28 1601.54L519.34 1708.41L653.08 1708.34Z" fill="#006602"/>
<path d="M787.08 1708.34L719.64 1815.28L653.29 1708.35L787.08 1708.34Z" fill="#584439"/>
<path d="M853.16 1814.32L787.08 1708.34L719.69 1814.94L853.16 1814.32Z" fill="#584439"/>
<path d="M853.16 1814.32L786.09 1921.96L719.43 1814.43L853.16 1814.32Z" fill="#584439"/>
<path d="M720.4 1814.93L653.6 1921.74L586.78 1814.93H720.4Z" fill="#584439"/>
<path d="M786.09 1921.96L720.12 1815.26L653.18 1922.13L786.09 1921.96Z" fill="#584439"/>
<path d="M719.89 1815.27L653.34 1708.41L586.78 1814.93L719.89 1815.27Z" fill="#584439"/>
<path d="M452.63 1601.6L386.62 1708.67L319.44 1600.05L452.63 1601.6Z" fill="#33AF00"/>
<path d="M519.23 1708.59L452.6 1601.41L386.62 1708.67L519.23 1708.59Z" fill="#006602"/>
<path d="M519.42 1494.8L452.63 1388L386.09 1494.8H519.42Z" fill="#006602"/>
<path d="M319.42 1388L254.15 1494.8L187.33 1388H319.42Z" fill="#33AF00"/>
<path d="M386.06 1494.8L319.27 1388L254.15 1494.8H386.06Z" fill="#006602"/>
<path d="M586.03 1388L519.42 1494.8L452.77 1388H586.03Z" fill="#33AF00"/>
<path d="M653.06 854.03L586.21 960.83L519.39 854.03H653.06Z" fill="#33AF00"/>
<path d="M786.43 426.88L719.64 533.68L652.82 426.88H786.43Z" fill="#33AF00"/>
<path d="M852.96 320.05L786.16 426.86L719.34 320.05H852.96Z" fill="#33AF00"/>
<path d="M719.94 747.19L653.14 640.39L586.6 747.19H719.94Z" fill="#006602"/>
<path d="M853.23 533.61L786.43 640.41L719.61 533.61H853.23Z" fill="#33AF00"/>
<path d="M720.43 533.61L653.64 640.41L586.82 533.61H720.43Z" fill="#33AF00"/>
<path d="M852.94 533.65L786.14 426.85L719.6 533.65H852.94Z" fill="#006602"/>
<path d="M786.15 426.86L719.35 320.06L652.81 426.86H786.15Z" fill="#006602"/>
<path d="M853.67 1813.26L787.58 1707.28L720.2 1813.88L853.67 1813.26Z" fill="#584439"/>
<path d="M984.52 2023.92L1118.12 2023.88L1188.42 2138.26L1323.99 2138.65L1463 1918.5" stroke="#474747" stroke-width="8" stroke-miterlimit="10"/>
<path d="M385.81 1921.77L1053.96 1922.1L987.62 2028.36L452.78 2028.92L385.81 1921.77Z" fill="#584439"/>
<path d="M764.09 248.79L741.82 213.17L719.629 248.8L764.09 248.79Z" fill="#FF2741"/>
<path d="M741.82 213.18L719.54 177.56L697.38 213.24L741.82 213.18Z" fill="#FF2741"/>
<path d="M741.93 142L719.41 106.35L697.25 142.03L741.93 142Z" fill="#A40014"/>
<path d="M697.35 213.24L675.16 177.56L653 213.18L697.35 213.24Z" fill="#A40014"/>
<path d="M719.7 177.68L697.26 142L675.1 177.62L719.7 177.68Z" fill="#A40014"/>
<path d="M786.44 213.18L764.16 177.56L741.725 213.18H786.44Z" fill="#A40014"/>
<path d="M764.215 177.62L741.935 142L719.5 177.62H764.215Z" fill="#A40014"/>
<path d="M741.9 284.43L719.62 248.8L697.46 284.43H741.9Z" fill="#FF2741"/>
<path d="M719.66 248.8L697.39 213.18L675.22 248.8H719.66Z" fill="#FF2741"/>
<path d="M764.063 248.799L741.783 284.419L719.618 248.799L764.063 248.799Z" fill="#A40014"/>
<path d="M741.8 284.42L719.52 320.05L697.35 284.42H741.8Z" fill="#A40014"/>
<path d="M741.82 213.18L719.63 248.8L697.35 213.23L741.82 213.18Z" fill="#FF2741"/>
<path d="M741.94 142L719.63 177.62L697.25 142H741.94Z" fill="#FF2741"/>
<path d="M764.224 177.55L741.78 213.12L719.5 177.55L764.224 177.55Z" fill="#FF2741"/>
<path d="M719.724 177.55L697.37 213.27L675.1 177.55L719.724 177.55Z" fill="#FF2741"/>
<path d="M786.45 213.16L764.17 248.85L741.81 213.18L786.45 213.16Z" fill="#A40014"/>
<path d="M697.36 213.23L675.17 248.85L653 213.18L697.36 213.23Z" fill="#A40014"/>
<path d="M719.621 248.8L697.37 284.42L675.2 248.8H719.621Z" fill="#A40014"/>
<path d="M786.47 640.41L764.19 604.79L742.03 640.41H786.47Z" fill="#1C35C6"/>
<path d="M764.2 604.8L741.92 569.17L719.75 604.8H764.2Z" fill="#1C35C6"/>
<path d="M764.28 676.04L742 640.42L719.84 676.04H764.28Z" fill="#1C35C6"/>
<path d="M742.04 640.42L719.76 604.8L697.6 640.42H742.04Z" fill="#1C35C6"/>
<path d="M764.21 747.27L741.93 711.65L719.76 747.27H764.21Z" fill="#1C35C6"/>
<path d="M786.45 640.42L764.17 676.04L742 640.42H786.45Z" fill="#007BED"/>
<path d="M764.18 676.04L741.9 711.66L719.73 676.04H764.18Z" fill="#007BED"/>
<path d="M764.18 604.85L741.9 640.47L719.73 604.85H764.18Z" fill="#007BED"/>
<path d="M742.02 640.41L719.74 676.03L697.58 640.41H742.02Z" fill="#007BED"/>
<path d="M652.95 925.24L630.67 889.61L608.51 925.24H652.95Z" fill="#A40014"/>
<path d="M675.12 889.61L652.84 853.99L630.67 889.61H675.12Z" fill="#A40014"/>
<path d="M674.9 960.84L652.63 925.22L630.46 960.84H674.9Z" fill="#A40014"/>
<path d="M630.66 960.85L608.38 925.23L586.22 960.85H630.66Z" fill="#A40014"/>
<path d="M719.33 960.84L697.05 925.22L674.89 960.84H719.33Z" fill="#A40014"/>
<path d="M697.39 925.22L675.11 889.6L652.95 925.22H697.39Z" fill="#A40014"/>
<path d="M697.22 925.22L674.94 960.84L652.77 925.22H697.22Z" fill="#FF2741"/>
<path d="M719.55 889.6L697.27 925.22L675.1 889.6H719.55Z" fill="#FF2741"/>
<path d="M630.66 889.62L608.39 925.24L586.22 889.62H630.66Z" fill="#FF2741"/>
<path d="M652.83 925.24L630.55 960.86L608.39 925.24H652.83Z" fill="#FF2741"/>
<path d="M675.02 960.84L652.74 996.46L630.58 960.84H675.02Z" fill="#FF2741"/>
<path d="M675.12 889.6L652.84 925.22L630.67 889.6H675.12Z" fill="#FF2741"/>
<path d="M586.05 1174.33L563.78 1138.7L541.61 1174.33H586.05Z" fill="#1C35C6"/>
<path d="M563.78 1138.71L541.5 1103.09L519.34 1138.71H563.78Z" fill="#1C35C6"/>
<path d="M563.87 1209.96L541.59 1174.34L519.42 1209.96H563.87Z" fill="#1C35C6"/>
<path d="M541.63 1174.34L519.35 1138.71L497.18 1174.34H541.63Z" fill="#1C35C6"/>
<path d="M563.79 1281.19L541.51 1245.57L519.35 1281.19H563.79Z" fill="#1C35C6"/>
<path d="M586.03 1174.34L563.75 1209.96L541.59 1174.34H586.03Z" fill="#007BED"/>
<path d="M563.76 1209.96L541.48 1245.58L519.32 1209.96H563.76Z" fill="#007BED"/>
<path d="M563.76 1138.77L541.48 1174.39L519.32 1138.77H563.76Z" fill="#007BED"/>
<path d="M541.6 1174.33L519.33 1209.95L497.16 1174.33H541.6Z" fill="#007BED"/>
<path d="M919.98 1138.13L897.76 1173.88L875.65 1138.13H919.98Z" fill="#A842F9"/>
<path d="M897.83 1173.88L875.61 1138.13L853.5 1173.88H897.83Z" fill="#63179F"/>
<path d="M809 1173.86L786.79 1138.11L764.68 1173.86H809Z" fill="#63179F"/>
<path d="M786.88 1209.63L764.65 1173.88L742.55 1209.63H786.88Z" fill="#63179F"/>
<path d="M764.69 1173.87L742.21 1138.11L719.86 1173.88L764.69 1173.87Z" fill="#63179F"/>
<path d="M875.41 1281.11L853.2 1245.36L830.97 1281.11H875.41Z" fill="#63179F"/>
<path d="M853.21 1245.35L830.99 1209.6L808.88 1245.35H853.21Z" fill="#63179F"/>
<path d="M808.88 1245.35L786.77 1209.62L764.66 1245.37L808.88 1245.35Z" fill="#63179F"/>
<path d="M897.52 1245.36L875.3 1209.61L853.19 1245.36H897.52Z" fill="#63179F"/>
<path d="M875.6 1209.61L853.38 1173.86L831.27 1209.61H875.6Z" fill="#63179F"/>
<path d="M831.08 1281.11L808.86 1245.36L786.65 1281.1L831.08 1281.11Z" fill="#63179F"/>
<path d="M919.63 1209.61L897.41 1245.36L875.3 1209.61H919.63Z" fill="#A842F9"/>
<path d="M875.41 1209.61L853.2 1245.36L831.09 1209.61H875.41Z" fill="#A842F9"/>
<path d="M897.81 1173.86L875.59 1209.6L853.48 1173.86H897.81Z" fill="#A842F9"/>
<path d="M808.98 1173.88L786.76 1209.63L764.65 1173.88H808.98Z" fill="#A842F9"/>
<path d="M786.77 1209.62L764.55 1245.37L742.44 1209.62H786.77Z" fill="#A842F9"/>
<path d="M786.79 1138.11L764.68 1173.86L742.21 1138.11H786.79Z" fill="#A842F9"/>
<path d="M831.09 1209.62L808.87 1245.37L786.76 1209.62H831.09Z" fill="#A842F9"/>
<path d="M808.87 1245.35L786.65 1281.1L764.54 1245.35H808.87Z" fill="#A842F9"/>
<path d="M853.19 1245.36L830.97 1281.11L808.86 1245.36H853.19Z" fill="#A842F9"/>
<path d="M897.52 1245.36L875.41 1281.11L853.2 1245.36H897.52Z" fill="#A842F9"/>
<path d="M519.42 1351.93L497.2 1387.68L475.09 1351.93H519.42Z" fill="#A842F9"/>
<path d="M497.27 1387.68L475.05 1351.93L452.94 1387.68H497.27Z" fill="#63179F"/>
<path d="M408.45 1387.66L386.23 1351.91L364.12 1387.66H408.45Z" fill="#63179F"/>
<path d="M386.32 1423.43L364.1 1387.68L341.99 1423.43H386.32Z" fill="#63179F"/>
<path d="M364.13 1387.67L341.65 1351.91L319.3 1387.68L364.13 1387.67Z" fill="#63179F"/>
<path d="M474.86 1494.91L452.64 1459.16L430.41 1494.91H474.86Z" fill="#63179F"/>
<path d="M452.65 1459.15L430.43 1423.4L408.32 1459.15H452.65Z" fill="#63179F"/>
<path d="M408.32 1459.15L386.21 1423.42L364.1 1459.17L408.32 1459.15Z" fill="#63179F"/>
<path d="M496.96 1459.16L474.74 1423.41L452.63 1459.16H496.96Z" fill="#63179F"/>
<path d="M475.04 1423.41L452.82 1387.66L430.71 1423.41H475.04Z" fill="#63179F"/>
<path d="M430.52 1494.91L408.3 1459.16L386.09 1494.9L430.52 1494.91Z" fill="#63179F"/>
<path d="M519.07 1423.41L496.85 1459.16L474.74 1423.41H519.07Z" fill="#A842F9"/>
<path d="M474.86 1423.41L452.64 1459.16L430.53 1423.41H474.86Z" fill="#A842F9"/>
<path d="M497.25 1387.66L475.03 1423.4L452.92 1387.66H497.25Z" fill="#A842F9"/>
<path d="M408.42 1387.68L386.2 1423.43L364.1 1387.68H408.42Z" fill="#A842F9"/>
<path d="M386.21 1423.42L363.99 1459.17L341.88 1423.42H386.21Z" fill="#A842F9"/>
<path d="M386.23 1351.91L364.12 1387.66L341.65 1351.91H386.23Z" fill="#A842F9"/>
<path d="M430.53 1423.42L408.31 1459.17L386.21 1423.42H430.53Z" fill="#A842F9"/>
<path d="M408.31 1459.15L386.09 1494.9L363.98 1459.15H408.31Z" fill="#A842F9"/>
<path d="M452.63 1459.16L430.41 1494.91L408.3 1459.16H452.63Z" fill="#A842F9"/>
<path d="M496.96 1459.16L474.86 1494.91L452.64 1459.16H496.96Z" fill="#A842F9"/>
<path d="M786.73 1494.74L764.45 1459.12L742.28 1494.74H786.73Z" fill="#1C35C6"/>
<path d="M764.46 1459.13L742.18 1423.5L720.01 1459.13H764.46Z" fill="#1C35C6"/>
<path d="M764.54 1530.37L742.26 1494.75L720.1 1530.37H764.54Z" fill="#1C35C6"/>
<path d="M742.3 1494.75L720.02 1459.13L697.86 1494.75H742.3Z" fill="#1C35C6"/>
<path d="M764.47 1601.6L742.19 1565.98L720.02 1601.6H764.47Z" fill="#1C35C6"/>
<path d="M786.71 1494.75L764.43 1530.37L742.26 1494.75H786.71Z" fill="#007BED"/>
<path d="M764.43 1530.37L742.15 1565.99L719.99 1530.37H764.43Z" fill="#007BED"/>
<path d="M764.43 1459.18L742.15 1494.8L719.99 1459.18H764.43Z" fill="#007BED"/>
<path d="M742.28 1494.74L720 1530.36L697.83 1494.74H742.28Z" fill="#007BED"/>
<path d="M1054.01 1352.35L1031.74 1316.73L1009.45 1352.35H1054.01Z" fill="#A40014"/>
<path d="M1076.18 1316.73L1053.9 1281.11L1031.74 1316.73H1076.18Z" fill="#A40014"/>
<path d="M1075.97 1387.95L1053.69 1352.33L1031.52 1387.95H1075.97Z" fill="#A40014"/>
<path d="M1031.72 1387.97L1009.45 1352.35L987.28 1387.97H1031.72Z" fill="#A40014"/>
<path d="M1120.39 1387.96L1098.12 1352.34L1075.95 1387.96H1120.39Z" fill="#A40014"/>
<path d="M1098.45 1352.34L1076.17 1316.72L1054.01 1352.34H1098.45Z" fill="#A40014"/>
<path d="M1098.28 1352.34L1076 1387.96L1053.84 1352.34H1098.28Z" fill="#FF2741"/>
<path d="M1120.61 1316.71L1098.33 1352.33L1076.16 1316.71H1120.61Z" fill="#FF2741"/>
<path d="M1031.73 1316.73L1009.45 1352.36L987.28 1316.73H1031.73Z" fill="#FF2741"/>
<path d="M1053.89 1352.35L1031.62 1387.97L1009.45 1352.35H1053.89Z" fill="#FF2741"/>
<path d="M1076.08 1387.95L1053.8 1423.58L1031.64 1387.95H1076.08Z" fill="#FF2741"/>
<path d="M1076.18 1316.72L1053.9 1352.34L1031.73 1316.72H1076.18Z" fill="#FF2741"/>
<path d="M920.67 2134.97H518V2462.02H920.67V2134.97Z" fill="#1C35C6"/>
<path d="M563.9 1637.23L541.62 1601.61L519.45 1637.23H563.9Z" fill="#63179F"/>
<path d="M541.62 1601.62L519.35 1566L497.18 1601.62H541.62Z" fill="#63179F"/>
<path d="M541.71 1672.87L519.43 1637.25L497.27 1672.87H541.71Z" fill="#63179F"/>
<path d="M519.47 1637.24L497.19 1601.62L475.03 1637.24H519.47Z" fill="#63179F"/>
<path d="M563.88 1637.25L541.6 1672.87L519.43 1637.25H563.88Z" fill="#A842F9"/>
<path d="M541.6 1672.86L519.32 1708.49L497.16 1672.86H541.6Z" fill="#A842F9"/>
<path d="M541.6 1601.67L519.32 1637.29L497.16 1601.67H541.6Z" fill="#A842F9"/>
<path d="M519.45 1637.24L497.17 1672.86L475 1637.24H519.45Z" fill="#A842F9"/>
<path d="M897.9 890.23L875.62 854.61L853.45 890.23H897.9Z" fill="#63179F"/>
<path d="M875.62 854.62L853.35 819L831.18 854.62H875.62Z" fill="#63179F"/>
<path d="M875.71 925.87L853.43 890.25L831.27 925.87H875.71Z" fill="#63179F"/>
<path d="M853.47 890.24L831.19 854.62L809.03 890.24H853.47Z" fill="#63179F"/>
<path d="M897.88 890.25L875.6 925.87L853.43 890.25H897.88Z" fill="#A842F9"/>
<path d="M875.6 925.86L853.32 961.49L831.16 925.86H875.6Z" fill="#A842F9"/>
<path d="M875.6 854.67L853.32 890.29L831.16 854.67H875.6Z" fill="#A842F9"/>
<path d="M853.45 890.24L831.17 925.86L809 890.24H853.45Z" fill="#A842F9"/>
<path d="M1008.71 1566.63L986.43 1531.01L964.27 1566.63H1008.71Z" fill="#A40014"/>
<path d="M1030.88 1531.01L1008.6 1566.63L986.43 1531.01H1030.88Z" fill="#FF2741"/>
<path d="M1008.6 1566.62L986.32 1602.25L964.16 1566.62H1008.6Z" fill="#FF2741"/>
<path d="M986.45 1531L964.17 1566.62L942 1531H986.45Z" fill="#FF2741"/>
<path d="M763.71 462.63L741.43 427.01L719.27 462.63H763.71Z" fill="#A40014"/>
<path d="M785.88 427.01L763.6 462.63L741.43 427.01H785.88Z" fill="#FF2741"/>
<path d="M763.6 462.62L741.32 498.25L719.16 462.62H763.6Z" fill="#FF2741"/>
<path d="M741.45 427L719.17 462.62L697 427H741.45Z" fill="#FF2741"/>
<path d="M609.49 2227.98H605.9L632.67 2185.23L606.86 2212.29H603.09L641.56 2171.32H644.96L609.49 2227.98Z" fill="white"/>
<path d="M677.59 2184.09H680.79L686.96 2174.55H700.94L707 2185.45L668.94 2227.93L701.99 2228L703.71 2225.4L675.23 2225.26L710.35 2185.45L702.47 2171.74H685.41L677.59 2184.09Z" fill="white"/>
<path d="M790.68 2201.34L776.62 2201.08L783.77 2212.16L774.19 2227.98L755.34 2227.85L747.31 2212.46L750.84 2212.47L757.06 2224.91L772.86 2225.18L780.71 2212.18L772.32 2199.26L771.59 2198.17L789.06 2198.46L797.01 2185.74L790.16 2174.29L774.34 2174.09L776.32 2171.23L791.84 2171.34L800.51 2185.79L790.68 2201.34Z" fill="white"/>
<path d="M871.51 2273.07L836.46 2328.59L832.94 2328.58L859.4 2286.66L818.29 2328.53L814.21 2328.51L868.2 2273.05L871.51 2273.07Z" fill="white"/>
<path d="M831.694 2312.7L831.683 2315.68L844.193 2315.73L844.204 2312.75L831.694 2312.7Z" fill="white"/>
<path d="M560.21 2328.95L595.24 2273.91L631.9 2273.55L630.09 2276.46L596.86 2276.84L565.7 2325.99L598.16 2326.43L596.25 2329.37L560.21 2328.95Z" fill="white"/>
<path d="M579.74 2302.89L579.73 2299.96L600.35 2299.88L598.5 2302.82L579.74 2302.89Z" fill="white"/>
<path d="M671.55 2272.34L636.38 2328.52H632.83L659.5 2285.93L619.5 2328.52H615.38L668.15 2272.34H671.55Z" fill="white"/>
<path d="M673.13 2328.33L664.13 2314.33L691.13 2271.98H708.31L716.25 2284.98L689.73 2328.23L673.13 2328.33ZM667.5 2314.33L674.71 2325.49L688.24 2325.44L712.94 2285.03L706.84 2274.81H692.77L667.5 2314.33Z" fill="white"/>
<path d="M752.85 2298.9V2301.91H750.23L736.81 2301.9L726.76 2285.92L735.68 2271.99H739.26L730.32 2285.94L738.48 2298.89L752.13 2298.9H752.85Z" fill="white"/>
<path d="M775.47 2271.99L740.01 2328.25H736.44L753.05 2301.91L754.94 2298.9H754.95L771.9 2271.99H775.47Z" fill="white"/>
<path d="M800.95 2272.35L788.21 2292.55L785.88 2296.25L784.83 2297.93L783.46 2300.1L765.49 2328.61H761.92L778.52 2302.27L778.68 2302.02L780.42 2299.26H780.43L782.09 2296.64L782.26 2296.35L784.69 2292.49L797.38 2272.35H800.95Z" fill="white"/>
<path d="M823.3 2272.35L786.14 2297.06L784.83 2297.93L783.13 2299.06L778.68 2302.02L780.42 2299.26H780.43L782.09 2296.64L782.3 2296.49L785.32 2294.48L788.21 2292.55L818.6 2272.35H823.3Z" fill="white"/>
<path d="M796.61 2328.55L792.73 2328.6L783.46 2300.1L783.13 2299.06L782.3 2296.49L782.26 2296.35L784.69 2292.49L785.32 2294.48L785.88 2296.25L786.14 2297.06L796.61 2328.55Z" fill="white"/>
<path d="M636.9 2369.28L635.14 2372.25L616.66 2372.26L583.14 2424.89H579.64L615.01 2369.28H636.9Z" fill="white"/>
<path d="M639.51 2425.07L630.51 2411.07L657.51 2368.72H674.69L682.63 2381.72L656.17 2425L639.51 2425.07ZM633.88 2411.07L641.09 2422.23L654.62 2422.18L679.32 2381.77L673.22 2371.55H659.14L633.88 2411.07Z" fill="white"/>
<path d="M679.53 2425.77L676.66 2425.68L711.73 2369.68L730.73 2369.61L740.89 2385.25L731.1 2400.88L695.67 2400.76L679.53 2425.77ZM697.53 2397.84L729.53 2397.95L737.53 2385.23L729.19 2372.5L713.38 2372.56L697.53 2397.84Z" fill="white"/>
<path d="M610.14 2229.16H603.78L625.52 2194.43L607.36 2213.43H600.36L641.05 2170.1H647.05L610.14 2229.16ZM608.03 2226.81H608.84L642.84 2172.5H642.08L605.82 2211.12H606.37L639.81 2176L608.03 2226.81Z" fill="white"/>
<path d="M702.8 2229.53L665.53 2229.44L705.14 2185.25L700.05 2176.08H687.79L681.63 2185.62H674.82L684.57 2170.22H703.35L712.22 2185.63L678.59 2223.75L706.55 2223.89L702.8 2229.53Z" fill="white"/>
<path d="M775 2229.47L754.42 2229.32L744.86 2211H751.76L757.98 2223.46L771.98 2223.7L779 2212.2L768.82 2196.64L788.29 2196.97L795.29 2185.73L789.29 2175.73L771.52 2175.51L775.52 2169.72L792.65 2169.85L802.22 2185.8L791.46 2202.8L779.34 2202.57L785.49 2212.1L775 2229.47ZM749.73 2213.95L753.73 2221.61L749.9 2213.95H749.73ZM793.73 2177.34L798.73 2185.76L796.03 2190.08L798.75 2185.77L793.73 2177.34Z" fill="white"/>
<path d="M637.26 2229.26L628.92 2242.56L622.07 2242.42L630.41 2229.26L627.34 2223.69L634.53 2223.87L637.26 2229.26Z" fill="white"/>
<path d="M728.99 2229.26L720.66 2242.56L713.8 2242.42L722.14 2229.26L719.08 2223.69L726.26 2223.87L728.99 2229.26Z" fill="white"/>
<path d="M862.01 2197.66L858.82 2203.43L816.3 2203.51L819.98 2197.65L862.01 2197.66Z" fill="white"/>
<path d="M866.1 2332.35L857.77 2345.64L850.91 2345.5L859.25 2332.35L856.19 2326.77L863.38 2326.96L866.1 2332.35Z" fill="white"/>
<path d="M837.26 2330H830.32L851 2297.33L818.9 2330H810.8L867.59 2271.65H874.14L837.26 2330ZM835.57 2327.1H835.67L868.89 2274.46H868.8L817.63 2327.03H817.68L867.85 2276L835.57 2327.1Z" fill="white"/>
<path d="M845.57 2317L830.17 2316.94V2311.07L845.57 2311.13V2317ZM833.08 2314.06H842.69V2314H833.08V2314.06Z" fill="white"/>
<path d="M597 2330.8L557.61 2330.34L594.42 2272.49L634.42 2272.09L630.84 2277.87L597.6 2278.25L568.22 2324.6L600.71 2325.03L597 2330.8ZM562.77 2327.55L595.47 2327.93L595.54 2327.82L563.12 2327.39L596.05 2275.39L629.28 2275.01L595.98 2275.34L562.77 2327.55Z" fill="white"/>
<path d="M578.32 2304.32V2298.54L602.95 2298.45L599.3 2304.24L578.32 2304.32ZM581.16 2301.38V2301.46L597.71 2301.4L597.76 2301.32L581.16 2301.38Z" fill="white"/>
<path d="M637.19 2330H630.19L650.31 2297.87L620.13 2330H612L667.51 2270.9H674.19L637.19 2330ZM635.47 2327.08H635.57L668.91 2273.82H668.78L618.78 2327.08H618.89L658.46 2284.95L660.76 2286.73L635.47 2327.08Z" fill="white"/>
<path d="M672.38 2329.71L662.54 2314.32L690.44 2270.6H709.15L717.93 2285.02L690.57 2329.64L672.38 2329.71ZM665.81 2314.32L673.89 2326.95L689.03 2326.89L714.7 2285L707.6 2273.34H692L665.81 2314.32ZM673.97 2326.88L665.87 2314.35L692 2273.42H707.61L714.54 2285.03L689 2326.81L673.97 2326.88ZM669.14 2314.34L675.46 2324.12H687.46L711.32 2285.12L706.05 2276.28H693.52L669.14 2314.34Z" fill="white"/>
<path d="M754.31 2303.37H736L725 2285.92L734.85 2270.53H741.91L732.03 2285.95L739.26 2297.43H754.26L754.31 2303.37ZM737.61 2300.44H751.38V2300.36H737.67L728.59 2285.94L736.59 2273.46H736.49L728.49 2285.93L737.61 2300.44Z" fill="white"/>
<path d="M740.81 2329.71H733.81L771.11 2270.52H778.11L740.81 2329.71ZM739.09 2326.78H739.19L772.81 2273.45H772.7L739.09 2326.78Z" fill="white"/>
<path d="M766.3 2330.07H759.3L796.6 2270.88H803.6L766.3 2330.07ZM764.58 2327.14H764.69L798.31 2273.81H798.2L764.58 2327.14Z" fill="white"/>
<path d="M773.79 2307.03L781.01 2295.59L787.4 2291.34L818.16 2270.89H828.14L773.79 2307.03Z" fill="white"/>
<path d="M791.67 2330.08L780.67 2296.16L785.16 2289.05L787.56 2296.62L798.63 2330L791.67 2330.08ZM783.86 2296.56L784.86 2299.66L793.8 2327.13H794.59L784.25 2295.95L783.86 2296.56Z" fill="white"/>
<path d="M583.94 2426.34H577L614.22 2367.84H639.44L636 2373.7H617.46L583.94 2426.34ZM582.27 2423.45H582.35L615.87 2370.81H634.32V2370.73H615.81L582.27 2423.45Z" fill="white"/>
<path d="M841.77 2367.83L814.27 2411.78H807.34L834.78 2367.83H841.77Z" fill="white"/>
<path d="M812.68 2367.35L775.64 2426.27H768L791.54 2390.05L757.49 2426.19L731.98 2426.1L766.48 2367.61H773.36L742.99 2420.25L754.92 2420.28L806.15 2367.35H812.68Z" fill="white"/>
<path d="M638.76 2426.45L628.92 2411.06L656.82 2367.34H675.53L684.31 2381.76L656.95 2426.38L638.76 2426.45ZM632.19 2411.06L640.27 2423.69L655.41 2423.63L681.09 2381.75L673.99 2370.09H658.33L632.19 2411.06ZM640.35 2423.62L632.25 2411.09L658.4 2370.18H674L680.93 2381.79L655.4 2423.57L640.35 2423.62ZM635.52 2411.08L641.84 2420.86H653.84L677.7 2381.86L672.43 2373.02H659.9L635.52 2411.08Z" fill="white"/>
<path d="M809.03 2421.52L805.51 2427.31L798.49 2427.33L802.18 2421.52H809.03Z" fill="white"/>
<path d="M680.3 2427.25L674.08 2427.05L710.92 2368.21L731.55 2368.13L742.65 2385.22L731.94 2402.32L696.49 2402.2L680.3 2427.25ZM694.9 2399.25L694.45 2399.97L694.91 2399.25L710.67 2399.3L694.9 2399.25ZM730.33 2399.37L732.64 2395.67L730.33 2399.37ZM700.13 2396.37L728.72 2396.47L735.72 2385.22L728.32 2373.93L714.1 2373.99L700.13 2396.37ZM729.93 2371.02L734.24 2377.6L729.93 2371.02ZM712.53 2371.09H721.6H712.53Z" fill="white"/>
<path d="M587.2 1813.5L656 1925H783.7L853.7 1813.5L787.2 1707H653.7L587.2 1813.5Z" fill="#584439"/>
<path d="M694.7 209L709.2 177.5H724.7L749.8 200L741.7 213L742.7 215L734.5 244H713.5L688.5 230.5L697.2 213L694.7 209Z" fill="#FF2741"/>
<path d="M652.9 213L675.4 177.5L697 213L695 216.5L655.4 217L652.9 213Z" fill="#A40014"/>
<path d="M741.9 213L751.4 198L774.9 195L786.4 213L783.4 218L753.9 232.5L741.9 213Z" fill="#A40014"/>
</g>
<defs>
<clipPath id="clip0_233_341">
<rect width="1440" height="2620" fill="white"/>
</clipPath>
</defs>
</svg>
