<svg width="1440" height="2620" viewBox="0 0 1440 2620" fill="none" xmlns="http://www.w3.org/2000/svg">
<g clip-path="url(#clip0_233_3)">
<path d="M587.61 747.19L521.1 853.99L454.28 747.19H587.61Z" fill="#474747"/>
<path d="M654.4 853.99L587.6 747.19L521.06 853.99H654.4Z" fill="#474747"/>
<path d="M654.1 640.39L587.3 533.59L520.76 640.39H654.1Z" fill="#474747"/>
<path d="M787.41 854.05L720.94 747.21L654.4 854.01L787.41 854.05Z" fill="#8E8E8E"/>
<path d="M787.41 640.38L720.62 533.58L654.08 640.38H787.41Z" fill="#474747"/>
<path d="M920.75 854.06L854.25 747.17L787.41 854.06H920.75Z" fill="#474747"/>
<path d="M854.26 747.19L787.47 640.39L720.93 747.19H854.26Z" fill="#474747"/>
<path d="M1121.49 960.91L1054.7 854.11L988.16 960.91H1121.49Z" fill="#474747"/>
<path d="M1188.16 1281.25L1121.37 1174.44L1054.83 1281.25H1188.16Z" fill="#474747"/>
<path d="M720.98 747.14L654.18 853.95L587.37 747.14H720.98Z" fill="#474747"/>
<path d="M854.25 747.17L787.41 854.05L720.87 747.2L854.25 747.17Z" fill="#8E8E8E"/>
<path d="M853.78 960.87L787.41 854.05L720.45 960.87H853.78Z" fill="#474747"/>
<path d="M854.09 960.87L787.35 1067.71L720.47 960.87H854.09Z" fill="#8E8E8E"/>
<path d="M921.03 854.05L854.23 960.85L787.41 854.05H921.03Z" fill="#8E8E8E"/>
<path d="M921.1 640L854.115 747L787.1 640H921.1Z" fill="#8E8E8E"/>
<path d="M787.73 640.39L720.94 747.19L654.12 640.39H787.73Z" fill="#8E8E8E"/>
<path d="M787.41 854.05L720.47 960.87L654.06 854.03L787.41 854.05Z" fill="#474747"/>
<path d="M787.48 1067.74L720.36 960.86L653.58 1068.15L787.48 1067.74Z" fill="#474747"/>
<path d="M787.36 1067.71L720.75 1173.79L653.58 1068.15L787.36 1067.71Z" fill="#474747"/>
<path d="M787.95 1281.29L720.74 1173.79L653.89 1281L787.95 1281.29Z" fill="#474747"/>
<path d="M787.5 1281L720.9 1387.88L653.89 1281H787.5Z" fill="#474747"/>
<path d="M1054.57 1067.65L987.78 1174.47L920.96 1067.65H1054.57Z" fill="#474747"/>
<path d="M653.58 1068.15L587.22 960.85L520.64 1067.68L653.58 1068.15Z" fill="#474747"/>
<path d="M654.03 1067.5L586.99 1174.31L520.48 1067.52L654.03 1067.5Z" fill="#474747"/>
<path d="M720.47 960.88L654.06 854.03L586.74 960.95L720.47 960.88Z" fill="#474747"/>
<path d="M720.34 960.92L653.58 1068.15L586.86 960.87L720.34 960.92Z" fill="#8E8E8E"/>
<path d="M720.92 1173.82L653.61 1068.09L586.99 1174.31L720.92 1173.82Z" fill="#474747"/>
<path d="M520.73 1067.59L453.57 1174.41L386.75 1067.61L520.73 1067.59Z" fill="#474747"/>
<path d="M520.37 1281.23L453.57 1388.03L386.75 1281.23H520.37Z" fill="#8E8E8E"/>
<path d="M386.74 1067.65L319.95 1174.45L253.13 1067.65H386.74Z" fill="#474747"/>
<path d="M587.06 1174.32L520.54 1067.6L453.32 1174.4L587.06 1174.32Z" fill="#474747"/>
<path d="M987.7 960.85L920.91 1067.65L854.09 960.85H987.7Z" fill="#474747"/>
<path d="M920.63 1067.67L853.83 960.87L787.36 1067.65L920.63 1067.67Z" fill="#8E8E8E"/>
<path d="M920.97 1067.65L854.18 1174.45L787.36 1067.65H920.97Z" fill="#8E8E8E"/>
<path d="M1121.37 1174.45L1054.58 1067.65L988.04 1174.45H1121.37Z" fill="#8E8E8E"/>
<path d="M1121.39 1174.44L1054.6 1281.25L987.78 1174.44H1121.39Z" fill="#8E8E8E"/>
<path d="M1055.92 1494.63L988.69 1387.82L922.15 1494.62L1055.92 1494.63Z" fill="#474747"/>
<path d="M1055.92 1494.63L988.21 1601.43L921.39 1494.63H1055.92Z" fill="#474747"/>
<path d="M854.06 1173.71L787.66 1066.95L720.71 1173.83L854.06 1173.71Z" fill="#474747"/>
<path d="M653.98 1281.23L587 1174.29L520.37 1281.23H653.98Z" fill="#474747"/>
<path d="M520.38 1281.23L453.59 1174.43L387.05 1281.23H520.38Z" fill="#474747"/>
<path d="M653.98 1281.23L587.18 1388.02L520.36 1281.22L653.98 1281.23Z" fill="#474747"/>
<path d="M720.9 1387.88L653.9 1281.02L587.05 1387.99L720.9 1387.88Z" fill="#474747"/>
<path d="M720.9 1387.87L653.75 1494.81L586.68 1387.76L720.9 1387.87Z" fill="#474747"/>
<path d="M386.99 1281.21L320.2 1388.02L253.38 1281.21H386.99Z" fill="#474747"/>
<path d="M787.69 1494.67L720.9 1387.87L653.75 1494.81L787.69 1494.67Z" fill="#474747"/>
<path d="M1255.97 1387.86L1189.49 1495.23L1121.22 1387.79L1255.97 1387.86Z" fill="#474747"/>
<path d="M1121.26 1387.8L1055.21 1494.52L987.64 1387.8H1121.26Z" fill="#474747"/>
<path d="M1189.49 1495.23L1121.26 1387.8L1054.23 1494.62L1189.49 1495.23Z" fill="#474747"/>
<path d="M921.16 1281L854.36 1387.8L787.54 1281H921.16Z" fill="#8E8E8E"/>
<path d="M854.52 1387.88L787.69 1494.67L720.91 1387.88H854.52Z" fill="#8E8E8E"/>
<path d="M854.61 1387.8L787.47 1280.99L720.87 1387.87L854.61 1387.8Z" fill="#474747"/>
<path d="M987.94 1387.81L921.15 1281.01L854.21 1387.88L987.94 1387.81Z" fill="#474747"/>
<path d="M921.42 1494.64L854.62 1387.84L787.68 1494.71L921.42 1494.64Z" fill="#474747"/>
<path d="M787.69 1494.67L720.78 1601.6L653.96 1494.79L787.69 1494.67Z" fill="#474747"/>
<path d="M654.03 1494.8L587.24 1601.6L520.42 1494.8H654.03Z" fill="#474747"/>
<path d="M720.78 1601.6L653.99 1494.79L587.04 1601.67L720.78 1601.6Z" fill="#474747"/>
<path d="M921.33 1494.7L854.54 1601.5L787.72 1494.7H921.33Z" fill="#8E8E8E"/>
<path d="M854.48 1601.47L787.69 1494.67L720.75 1601.55L854.48 1601.47Z" fill="#474747"/>
<path d="M1122.7 1602.26L1055.01 1708.21L988.19 1601.41L1122.7 1602.26Z" fill="#474747"/>
<path d="M988.21 1601.43L921.41 1708.24L854.59 1601.43H988.21Z" fill="#474747"/>
<path d="M1055 1708.24L988.21 1601.43L921.26 1708.31L1055 1708.24Z" fill="#8E8E8E"/>
<path d="M1188.55 1708.21L1122.7 1602.26L1054.81 1708.29L1188.55 1708.21Z" fill="#8E8E8E"/>
<path d="M988.21 1601.43L921.41 1494.63L854.47 1601.51L988.21 1601.43Z" fill="#474747"/>
<path d="M987.8 1174.48L921.12 1067.58L854.18 1174.45L987.8 1174.48Z" fill="#8E8E8E"/>
<path d="M386.98 1281.21L320.18 1174.41L253.24 1281.29L386.98 1281.21Z" fill="#8E8E8E"/>
<path d="M720.76 1173.79L653.88 1281.02L586.99 1174.31L720.76 1173.79Z" fill="#8E8E8E"/>
<path d="M854.36 1173.79L787.57 1280.74L720.75 1173.79H854.36Z" fill="#474747"/>
<path d="M587.03 1174.33L520.37 1281.23L453.5 1174.33H587.03Z" fill="#8E8E8E"/>
<path d="M653.75 1494.81L586.96 1388.01L520.42 1494.81H653.75Z" fill="#474747"/>
<path d="M854.68 1601.46L788.08 1708.34L721.06 1601.46H854.68Z" fill="#8E8E8E"/>
<path d="M721.13 1601.61L654.34 1708.41L587.52 1601.61H721.13Z" fill="#8E8E8E"/>
<path d="M788.08 1708.34L721.28 1601.54L654.34 1708.41L788.08 1708.34Z" fill="#8E8E8E"/>
<path d="M788.08 1708.34L720.64 1815.28L654.29 1708.35L788.08 1708.34Z" fill="#584439"/>
<path d="M854.16 1814.32L788.08 1708.34L720.69 1814.94L854.16 1814.32Z" fill="#584439"/>
<path d="M854.16 1814.32L787.09 1921.96L720.43 1814.43L854.16 1814.32Z" fill="#584439"/>
<path d="M721.4 1814.93L654.6 1921.74L587.78 1814.93H721.4Z" fill="#584439"/>
<path d="M787.09 1921.96L721.12 1815.26L654.18 1922.13L787.09 1921.96Z" fill="#584439"/>
<path d="M720.89 1815.27L654.34 1708.41L587.78 1814.93L720.89 1815.27Z" fill="#584439"/>
<path d="M587.03 1388L520.42 1494.8L453.77 1388H587.03Z" fill="#8E8E8E"/>
<path d="M654.06 854.03L587.21 960.83L520.39 854.03H654.06Z" fill="#8E8E8E"/>
<path d="M587.21 960.83L520.42 854.03L453.88 960.83H587.21Z" fill="#474747"/>
<path d="M520.64 854.03L453.85 960.83L387.03 854.03H520.64Z" fill="#474747"/>
<path d="M654.4 640.39L587.61 747.19L520.79 640.39H654.4Z" fill="#8E8E8E"/>
<path d="M587.47 533.74L520.68 640.54L453.86 533.74H587.47Z" fill="#8E8E8E"/>
<path d="M787.177 426.8L720.64 533.68L653.82 426.88L787.177 426.8Z" fill="#8E8E8E"/>
<path d="M853.96 320.05L787.14 426.86L720.34 320.05H853.96Z" fill="#8E8E8E"/>
<path d="M720.94 747.19L654.14 640.39L587.6 747.19H720.94Z" fill="#474747"/>
<path d="M854 533.7L787.43 640.41L720.61 533.61L854 533.7Z" fill="#474747"/>
<path d="M854 533.7L787.14 426.85L720.6 533.65L854 533.7Z" fill="#474747"/>
<path d="M787.15 426.86L720.35 320.06L653.81 426.86H787.15Z" fill="#474747"/>
<path d="M631.05 2241.85L608.77 2206.23L586.61 2241.85H631.05Z" fill="#1C35C6"/>
<path d="M608.78 2206.24L586.5 2170.62L564.33 2206.24H608.78Z" fill="#1C35C6"/>
<path d="M608.86 2277.49L586.59 2241.87L564.42 2277.49H608.86Z" fill="#1C35C6"/>
<path d="M586.62 2241.86L564.35 2206.24L542.18 2241.86H586.62Z" fill="#1C35C6"/>
<path d="M608.79 2348.72L586.51 2313.09L564.34 2348.72H608.79Z" fill="#1C35C6"/>
<path d="M631.03 2241.87L608.75 2277.49L586.59 2241.87H631.03Z" fill="#007BED"/>
<path d="M608.75 2277.49L586.48 2313.11L564.31 2277.49H608.75Z" fill="#007BED"/>
<path d="M608.75 2206.29L586.48 2241.92L564.31 2206.29H608.75Z" fill="#007BED"/>
<path d="M586.6 2241.86L564.32 2277.48L542.16 2241.86H586.6Z" fill="#007BED"/>
<path d="M944.39 2243.24L922.11 2207.62L899.95 2243.24H944.39Z" fill="#1C35C6"/>
<path d="M922.12 2207.62L899.84 2172L877.67 2207.62H922.12Z" fill="#1C35C6"/>
<path d="M922.2 2278.87L899.92 2243.25L877.76 2278.87H922.2Z" fill="#1C35C6"/>
<path d="M899.96 2243.25L877.68 2207.63L855.52 2243.25H899.96Z" fill="#1C35C6"/>
<path d="M922.13 2350.1L899.85 2314.48L877.68 2350.1H922.13Z" fill="#1C35C6"/>
<path d="M944.37 2243.25L922.09 2278.87L899.92 2243.25H944.37Z" fill="#007BED"/>
<path d="M922.09 2278.87L899.82 2314.49L877.65 2278.87H922.09Z" fill="#007BED"/>
<path d="M922.09 2207.68L899.82 2243.3L877.65 2207.68H922.09Z" fill="#007BED"/>
<path d="M899.94 2243.24L877.66 2278.86L855.5 2243.24H899.94Z" fill="#007BED"/>
<path d="M498.52 2383.01L476.24 2347.39L454.07 2383.01H498.52Z" fill="#1C35C6"/>
<path d="M476.24 2347.4L453.97 2311.78L431.8 2347.4H476.24Z" fill="#1C35C6"/>
<path d="M476.33 2418.65L454.05 2383.03L431.89 2418.65H476.33Z" fill="#1C35C6"/>
<path d="M454.09 2383.02L431.81 2347.4L409.65 2383.02H454.09Z" fill="#1C35C6"/>
<path d="M476.25 2489.87L453.98 2454.25L431.81 2489.87H476.25Z" fill="#1C35C6"/>
<path d="M498.5 2383.03L476.22 2418.65L454.05 2383.03H498.5Z" fill="#007BED"/>
<path d="M476.22 2418.64L453.94 2454.27L431.78 2418.64H476.22Z" fill="#007BED"/>
<path d="M476.22 2347.45L453.94 2383.07L431.78 2347.45H476.22Z" fill="#007BED"/>
<path d="M454.07 2383.02L431.79 2418.64L409.62 2383.02H454.07Z" fill="#007BED"/>
<path d="M298.4 2348.03L276.12 2312.41L253.95 2348.03H298.4Z" fill="#63179F"/>
<path d="M276.12 2312.42L253.85 2276.8L231.68 2312.42H276.12Z" fill="#63179F"/>
<path d="M276.21 2383.67L253.93 2348.05L231.77 2383.67H276.21Z" fill="#63179F"/>
<path d="M253.97 2348.04L231.69 2312.42L209.53 2348.04H253.97Z" fill="#63179F"/>
<path d="M298.38 2348.05L276.1 2383.67L253.93 2348.05H298.38Z" fill="#A842F9"/>
<path d="M276.1 2383.66L253.82 2419.29L231.66 2383.66H276.1Z" fill="#A842F9"/>
<path d="M276.1 2312.47L253.82 2348.09L231.66 2312.47H276.1Z" fill="#A842F9"/>
<path d="M253.95 2348.04L231.67 2383.66L209.5 2348.04H253.95Z" fill="#A842F9"/>
<path d="M1235.4 2352.53L1213.12 2316.91L1190.95 2352.53H1235.4Z" fill="#63179F"/>
<path d="M1213.12 2316.92L1190.85 2281.3L1168.68 2316.92H1213.12Z" fill="#63179F"/>
<path d="M1213.21 2388.17L1190.93 2352.55L1168.77 2388.17H1213.21Z" fill="#63179F"/>
<path d="M1190.97 2352.54L1168.69 2316.92L1146.53 2352.54H1190.97Z" fill="#63179F"/>
<path d="M1235.38 2352.55L1213.1 2388.17L1190.93 2352.55H1235.38Z" fill="#A842F9"/>
<path d="M1213.1 2388.16L1190.82 2423.79L1168.66 2388.16H1213.1Z" fill="#A842F9"/>
<path d="M1213.1 2316.97L1190.82 2352.59L1168.66 2316.97H1213.1Z" fill="#A842F9"/>
<path d="M1190.95 2352.54L1168.67 2388.16L1146.5 2352.54H1190.95Z" fill="#A842F9"/>
<path d="M142.21 2313.63L119.93 2278.01L97.77 2313.63H142.21Z" fill="#FF2741"/>
<path d="M164.38 2278.01L142.1 2313.63L119.93 2278.01H164.38Z" fill="#A40014"/>
<path d="M142.1 2313.62L119.82 2349.25L97.6602 2313.62H142.1Z" fill="#A40014"/>
<path d="M119.95 2278L97.67 2313.62L75.5 2278H119.95Z" fill="#A40014"/>
<path d="M1344.91 2314.63L1322.63 2279.01L1300.47 2314.63H1344.91Z" fill="#FF2741"/>
<path d="M1367.08 2279.01L1344.8 2314.63L1322.63 2279.01H1367.08Z" fill="#A40014"/>
<path d="M1344.8 2314.62L1322.52 2350.25L1300.36 2314.62H1344.8Z" fill="#A40014"/>
<path d="M1322.65 2279L1300.37 2314.62L1278.2 2279H1322.65Z" fill="#A40014"/>
<path d="M966.74 2423.24L944.46 2387.62L922.29 2423.24H966.74Z" fill="#A40014"/>
<path d="M988.9 2387.62L966.62 2352L944.46 2387.62H988.9Z" fill="#A40014"/>
<path d="M988.69 2458.85L966.41 2423.22L944.25 2458.85H988.69Z" fill="#A40014"/>
<path d="M944.45 2458.86L922.17 2423.24L900 2458.86H944.45Z" fill="#A40014"/>
<path d="M1033.12 2458.85L1010.84 2423.23L988.67 2458.85H1033.12Z" fill="#A40014"/>
<path d="M1011.17 2423.23L988.9 2387.61L966.73 2423.23H1011.17Z" fill="#A40014"/>
<path d="M1011 2423.23L988.73 2458.85L966.56 2423.23H1011Z" fill="#FF2741"/>
<path d="M1033.33 2387.6L1011.06 2423.22L988.89 2387.6H1033.33Z" fill="#FF2741"/>
<path d="M944.45 2387.62L922.17 2423.24L900.01 2387.62H944.45Z" fill="#FF2741"/>
<path d="M966.62 2423.24L944.34 2458.86L922.17 2423.24H966.62Z" fill="#FF2741"/>
<path d="M988.8 2458.84L966.53 2494.47L944.36 2458.84H988.8Z" fill="#FF2741"/>
<path d="M988.9 2387.61L966.62 2423.23L944.46 2387.61H988.9Z" fill="#FF2741"/>
<path d="M745.43 2276.25L723.15 2240.62L700.86 2276.24L745.43 2276.25Z" fill="#A40014"/>
<path d="M767.6 2240.62L745.32 2205L723.15 2240.62H767.6Z" fill="#A40014"/>
<path d="M767.38 2311.85L745.11 2276.23L722.94 2311.85H767.38Z" fill="#A40014"/>
<path d="M723.14 2311.86L700.86 2276.24L678.7 2311.86H723.14Z" fill="#A40014"/>
<path d="M811.81 2311.86L789.53 2276.23L767.37 2311.86H811.81Z" fill="#A40014"/>
<path d="M789.87 2276.23L767.59 2240.61L745.42 2276.23H789.87Z" fill="#A40014"/>
<path d="M789.7 2276.23L767.42 2311.86L745.25 2276.23H789.7Z" fill="#FF2741"/>
<path d="M812.03 2240.61L789.75 2276.23L767.58 2240.61H812.03Z" fill="#FF2741"/>
<path d="M723.14 2240.63L700.87 2276.25L678.7 2240.63H723.14Z" fill="#FF2741"/>
<path d="M745.31 2276.25L723.03 2311.87L700.87 2276.25H745.31Z" fill="#FF2741"/>
<path d="M767.5 2311.85L745.22 2347.47L723.05 2311.85H767.5Z" fill="#FF2741"/>
<path d="M767.59 2240.61L745.31 2276.23L723.15 2240.61H767.59Z" fill="#FF2741"/>
<path d="M985.53 2024.03L1119.13 2024L1189.44 2138.38L1325.01 2138.77L1458 1927" stroke="#474747" stroke-width="8" stroke-miterlimit="10"/>
<path d="M387 1922L1055.15 1922.33L988.81 2028.59L453.97 2029.15L387 1922Z" fill="#584439"/>
<path d="M520.42 1494.81L453.62 1601.61L387 1494.6L520.42 1494.81Z" fill="#474747"/>
<path d="M453.65 1601.6L387 1494.5L320.6 1600.67L453.65 1601.6Z" fill="#8E8E8E"/>
<path d="M453.63 1601.6L387.49 1708.5L321 1600.5L453.63 1601.6Z" fill="#474747"/>
<path d="M321 1600.5L253.17 1708.73L186.52 1601.93L321 1600.5Z" fill="#8E8E8E"/>
<path d="M387.6 1708.5L321 1600.5L253.3 1708.69L387.6 1708.5Z" fill="#474747"/>
<path d="M387 1708.5L392 1700L321 1600.5L318 1606L387 1708.5Z" fill="#474747"/>
<path d="M810.12 2386.02L787.9 2421.77L765.79 2386.02H810.12Z" fill="#A842F9"/>
<path d="M787.97 2421.78L765.75 2386.03L743.64 2421.78H787.97Z" fill="#63179F"/>
<path d="M699.15 2421.76L676.93 2386.01L654.82 2421.76H699.15Z" fill="#63179F"/>
<path d="M677.02 2457.52L654.8 2421.77L632.69 2457.52H677.02Z" fill="#63179F"/>
<path d="M654.84 2421.77L632.35 2386L610 2421.77H654.84Z" fill="#63179F"/>
<path d="M765.56 2529L743.34 2493.26L721.11 2529H765.56Z" fill="#63179F"/>
<path d="M743.35 2493.25L721.13 2457.5L699.02 2493.25H743.35Z" fill="#63179F"/>
<path d="M699.02 2493.25L676.91 2457.51L654.8 2493.26L699.02 2493.25Z" fill="#63179F"/>
<path d="M787.66 2493.25L765.44 2457.5L743.33 2493.25H787.66Z" fill="#63179F"/>
<path d="M765.74 2457.5L743.52 2421.75L721.42 2457.5H765.74Z" fill="#63179F"/>
<path d="M721.23 2529L699.01 2493.25L676.79 2528.99L721.23 2529Z" fill="#63179F"/>
<path d="M809.77 2457.5L787.55 2493.25L765.44 2457.5H809.77Z" fill="#A842F9"/>
<path d="M765.56 2457.51L743.34 2493.26L721.23 2457.51H765.56Z" fill="#A842F9"/>
<path d="M787.95 2421.75L765.73 2457.5L743.62 2421.75H787.95Z" fill="#A842F9"/>
<path d="M699.13 2421.77L676.91 2457.52L654.8 2421.77H699.13Z" fill="#A842F9"/>
<path d="M676.91 2457.52L654.69 2493.27L632.58 2457.52H676.91Z" fill="#A842F9"/>
<path d="M676.93 2386.01L654.82 2421.76L632.35 2386L676.93 2386.01Z" fill="#A842F9"/>
<path d="M721.24 2457.52L699.02 2493.27L676.91 2457.52H721.24Z" fill="#A842F9"/>
<path d="M699.01 2493.25L676.79 2528.99L654.68 2493.25H699.01Z" fill="#A842F9"/>
<path d="M743.33 2493.25L721.11 2529L699.01 2493.25H743.33Z" fill="#A842F9"/>
<path d="M787.67 2493.26L765.56 2529L743.34 2493.26H787.67Z" fill="#A842F9"/>
<path d="M476.53 2134.13L454.31 2169.88L432.2 2134.13H476.53Z" fill="#A842F9"/>
<path d="M454.38 2169.89L432.16 2134.14L410.05 2169.89H454.38Z" fill="#63179F"/>
<path d="M365.56 2169.87L343.34 2134.12L321.23 2169.87H365.56Z" fill="#63179F"/>
<path d="M343.43 2205.63L321.21 2169.88L299.1 2205.63H343.43Z" fill="#63179F"/>
<path d="M321.25 2169.88L298.76 2134.11L276.41 2169.88H321.25Z" fill="#63179F"/>
<path d="M431.97 2277.11L409.75 2241.37L387.52 2277.11H431.97Z" fill="#63179F"/>
<path d="M409.76 2241.36L387.54 2205.61L365.43 2241.36H409.76Z" fill="#63179F"/>
<path d="M365.43 2241.36L343.32 2205.62L321.21 2241.37L365.43 2241.36Z" fill="#63179F"/>
<path d="M454.07 2241.36L431.85 2205.61L409.74 2241.36H454.07Z" fill="#63179F"/>
<path d="M432.15 2205.61L409.93 2169.86L387.82 2205.61H432.15Z" fill="#63179F"/>
<path d="M387.63 2277.11L365.42 2241.36L343.2 2277.1L387.63 2277.11Z" fill="#63179F"/>
<path d="M476.18 2205.61L453.96 2241.36L431.85 2205.61H476.18Z" fill="#A842F9"/>
<path d="M431.97 2205.62L409.75 2241.37L387.64 2205.62H431.97Z" fill="#A842F9"/>
<path d="M454.36 2169.86L432.14 2205.61L410.03 2169.86H454.36Z" fill="#A842F9"/>
<path d="M365.54 2169.88L343.31 2205.63L321.21 2169.88H365.54Z" fill="#A842F9"/>
<path d="M343.32 2205.63L321.1 2241.38L298.99 2205.63H343.32Z" fill="#A842F9"/>
<path d="M343.34 2134.12L321.23 2169.87L298.76 2134.11L343.34 2134.12Z" fill="#A842F9"/>
<path d="M387.64 2205.63L365.43 2241.38L343.32 2205.63H387.64Z" fill="#A842F9"/>
<path d="M365.42 2241.36L343.2 2277.11L321.09 2241.36H365.42Z" fill="#A842F9"/>
<path d="M409.74 2241.36L387.52 2277.11L365.42 2241.36H409.74Z" fill="#A842F9"/>
<path d="M454.07 2241.37L431.97 2277.11L409.75 2241.37H454.07Z" fill="#A842F9"/>
<path d="M1100.69 2279.84L1078.42 2244.22L1056.23 2279.85L1100.69 2279.84Z" fill="#FF2741"/>
<path d="M1078.42 2244.23L1056.14 2208.61L1033.98 2244.29L1078.42 2244.23Z" fill="#FF2741"/>
<path d="M1078.53 2173.05L1056.01 2137.4L1033.85 2173.08L1078.53 2173.05Z" fill="#A40014"/>
<path d="M1033.95 2244.29L1011.76 2208.61L989.6 2244.23L1033.95 2244.29Z" fill="#A40014"/>
<path d="M1056.3 2208.73L1033.86 2173.05L1011.7 2208.67L1056.3 2208.73Z" fill="#A40014"/>
<path d="M1123.04 2244.23L1100.76 2208.61L1078.33 2244.23H1123.04Z" fill="#A40014"/>
<path d="M1100.81 2208.67L1078.53 2173.05L1056.1 2208.67H1100.81Z" fill="#A40014"/>
<path d="M1078.5 2315.48L1056.22 2279.85L1034.06 2315.48H1078.5Z" fill="#FF2741"/>
<path d="M1056.26 2279.85L1033.99 2244.23L1011.82 2279.85H1056.26Z" fill="#FF2741"/>
<path d="M1100.66 2279.85L1078.38 2315.47L1056.22 2279.85L1100.66 2279.85Z" fill="#A40014"/>
<path d="M1078.4 2315.47L1056.12 2351.1L1033.95 2315.47H1078.4Z" fill="#A40014"/>
<path d="M1078.42 2244.23L1056.23 2279.85L1033.95 2244.28L1078.42 2244.23Z" fill="#FF2741"/>
<path d="M1078.54 2173.05L1056.23 2208.67L1033.85 2173.05H1078.54Z" fill="#FF2741"/>
<path d="M1100.82 2208.6L1078.38 2244.17L1056.1 2208.6L1100.82 2208.6Z" fill="#FF2741"/>
<path d="M1056.32 2208.6L1033.97 2244.32L1011.7 2208.6L1056.32 2208.6Z" fill="#FF2741"/>
<path d="M1123.05 2244.21L1100.77 2279.9L1078.41 2244.23L1123.05 2244.21Z" fill="#A40014"/>
<path d="M1033.96 2244.28L1011.77 2279.9L989.6 2244.23L1033.96 2244.28Z" fill="#A40014"/>
<path d="M1056.22 2279.85L1033.97 2315.47L1011.8 2279.85H1056.22Z" fill="#A40014"/>
<path d="M989.5 2244L1012 2208.5L1034 2244L1033 2245.5L992 2248L989.5 2244Z" fill="#A40014"/>
<path d="M1078.5 2244L1088 2229L1111.5 2226L1123 2244L1120 2249L1090.5 2263.5L1078.5 2244Z" fill="#A40014"/>
<path d="M1031.5 2240L1046 2208.5H1061.5L1086.6 2231L1078.5 2244L1079.5 2246L1071.5 2280H1050.5L1025 2258.5L1034 2244L1031.5 2240Z" fill="#FF2741"/>
<path d="M588 1815L655.5 1923L784.5 1926.5L854.5 1815L788 1708.5H654.5L588 1815Z" fill="#584439"/>
<path d="M1055 1281.5L987.78 1174.47L1055 1068L1122 1174L1055 1281.5Z" fill="#8E8E8E"/>
<path d="M846 734L854 747H863L920.5 640.5L846 734Z" fill="#8E8E8E"/>
<path d="M755.5 478L654 640H787.5L854 533.7L755.5 478Z" fill="#474747"/>
<path d="M721 747L654.1 854.02L787.5 853.5L854 747H721Z" fill="#8E8E8E"/>
<path d="M654 854L587.5 961H854.5L787.5 854H654Z" fill="#474747"/>
<path d="M587.5 747H454.5L521 854.5H654L720.5 747L654 640L587.5 747Z" fill="#474747"/>
<path d="M454 960.5L386.5 854H520.5L587 960.5H454Z" fill="#474747"/>
<path d="M854 1174L720.5 961H854L987.8 1174.48L854 1174Z" fill="#8E8E8E"/>
<path d="M453.5 1174L387.5 1068H521L587.25 961.5L653.5 1068L720.5 961L854.5 1174L788 1280.5L855 1387.5H721L854.5 1601.5H587.5L520.5 1495L587 1387.5L520.4 1281.2L587 1176L653 1280.5L721 1174H453.5Z" fill="#474747"/>
<path d="M680.5 1602L654.5 1708H788V1602H680.5Z" fill="#8E8E8E"/>
<path d="M988.5 1388H1255L1189 1494.5H1056L922 1708.5L854.5 1601.5L988.5 1388Z" fill="#474747"/>
<path d="M987.65 747.15L920.86 640.35L854.25 747.15H987.65Z" fill="#8E8E8E"/>
<path d="M1054.45 640.35L987.65 747.15L920.83 640.35H1054.45Z" fill="#8E8E8E"/>
<path d="M1054.44 640.35L987.65 533.55L921.11 640.35H1054.44Z" fill="#474747"/>
<path d="M1121.24 747.15L1054.45 640.35L987.65 747.15H1121.24Z" fill="#474747"/>
<path d="M942.5 640.5H921.5L963 746.5H988L942.5 640.5Z" fill="#8E8E8E"/>
</g>
<defs>
<clipPath id="clip0_233_3">
<rect width="1440" height="2620" fill="white"/>
</clipPath>
</defs>
</svg>
