<svg width="1440" height="2981" viewBox="0 0 1440 2981" fill="none" xmlns="http://www.w3.org/2000/svg">
<g clip-path="url(#clip0_100_983)">
<path d="M-1721.56 42.6L131.88 3002.36" stroke="#CAD2FC" stroke-width="2" stroke-miterlimit="10"/>
<path d="M-1587.92 42.6L260.57 2996.36" stroke="#CAD2FC" stroke-width="2" stroke-miterlimit="10"/>
<path d="M-1453.42 42.6L394.59 2995.02" stroke="#CAD2FC" stroke-width="2" stroke-miterlimit="10"/>
<path d="M-1322.89 42.6L516.3 2983.17" stroke="#CAD2FC" stroke-width="2" stroke-miterlimit="10"/>
<path d="M-1188.12 42.6L651.07 2983.17" stroke="#CAD2FC" stroke-width="2" stroke-miterlimit="10"/>
<path d="M-1054.2 42.6L788.8 2989.69" stroke="#CAD2FC" stroke-width="2" stroke-miterlimit="10"/>
<path d="M-921.36 42.6L917.83 2983.17" stroke="#CAD2FC" stroke-width="2" stroke-miterlimit="10"/>
<path d="M-786.7 45.9399L787.98 2564.08L915.56 2768.1L921.65 2777.84L1057.76 2993.69" stroke="#CAD2FC" stroke-width="2" stroke-miterlimit="10"/>
<path d="M-653.31 42.6L1193.29 2995.02" stroke="#CAD2FC" stroke-width="2" stroke-miterlimit="10"/>
<path d="M-521.1 42.6L1323.43 2991.69" stroke="#CAD2FC" stroke-width="2" stroke-miterlimit="10"/>
<path d="M-387.54 42.6L1451.65 2983.17" stroke="#CAD2FC" stroke-width="2" stroke-miterlimit="10"/>
<path d="M-254.3 42.65L1584.89 2983.21" stroke="#CAD2FC" stroke-width="2" stroke-miterlimit="10"/>
<path d="M-120.6 42.6L1718.59 2983.17" stroke="#CAD2FC" stroke-width="2" stroke-miterlimit="10"/>
<path d="M-7 10L1852.47 2983.17" stroke="#CAD2FC" stroke-width="2" stroke-miterlimit="10"/>
<path d="M147.74 42.6L1986.93 2983.17" stroke="#CAD2FC" stroke-width="2" stroke-miterlimit="10"/>
<path d="M99.5 -34.5L1986.93 2983.17" stroke="#CAD2FC" stroke-width="2" stroke-miterlimit="10"/>
<path d="M248.5 -8.5L2119.4 2983.17" stroke="#CAD2FC" stroke-width="2" stroke-miterlimit="10"/>
<path d="M379 -12.5L2252.73 2983.17" stroke="#CAD2FC" stroke-width="2" stroke-miterlimit="10"/>
<path d="M515 -8.5L2386.05 2983.17" stroke="#CAD2FC" stroke-width="2" stroke-miterlimit="10"/>
<path d="M647.5 -10.5L2519.64 2982.61" stroke="#CAD2FC" stroke-width="2" stroke-miterlimit="10"/>
<path d="M780 -11L2649.77 2982.61" stroke="#CAD2FC" stroke-width="2" stroke-miterlimit="10"/>
<path d="M909 -15.5L2782.42 2982.05" stroke="#CAD2FC" stroke-width="2" stroke-miterlimit="10"/>
<path d="M1034.5 -28.5L2917.05 2981.21" stroke="#CAD2FC" stroke-width="2" stroke-miterlimit="10"/>
<path d="M1171.5 -23.5L3050.54 2980.92" stroke="#CAD2FC" stroke-width="2" stroke-miterlimit="10"/>
<path d="M1295 -40L3185.73 2983.17" stroke="#CAD2FC" stroke-width="2" stroke-miterlimit="10"/>
<path d="M128.5 -11L-1754.29 2999.61L84.9 59.04" stroke="#CAD2FC" stroke-width="2" stroke-miterlimit="10"/>
<path d="M261 -12L-1622.21 2999.05" stroke="#CAD2FC" stroke-width="2" stroke-miterlimit="10"/>
<path d="M354.11 53.99L-1485.08 2994.56" stroke="#CAD2FC" stroke-width="2" stroke-miterlimit="10"/>
<path d="M395 -11L-1485.08 2994.56" stroke="#CAD2FC" stroke-width="2" stroke-miterlimit="10"/>
<path d="M524 -5L-1349.91 2990.91" stroke="#CAD2FC" stroke-width="2" stroke-miterlimit="10"/>
<path d="M657 -4L-1214.19 2987.82" stroke="#CAD2FC" stroke-width="2" stroke-miterlimit="10"/>
<path d="M789.5 -4.5L-1080.3 2985.01" stroke="#CAD2FC" stroke-width="2" stroke-miterlimit="10"/>
<path d="M928 -12L-946.38 2985.01" stroke="#CAD2FC" stroke-width="2" stroke-miterlimit="10"/>
<path d="M1060.5 -10L-812.8 2985.45" stroke="#CAD2FC" stroke-width="2" stroke-miterlimit="10"/>
<path d="M1197.5 -14.5L-678.57 2985.01" stroke="#CAD2FC" stroke-width="2" stroke-miterlimit="10"/>
<path d="M1332.5 -17.5L-545.36 2985.01" stroke="#CAD2FC" stroke-width="2" stroke-miterlimit="10"/>
<path d="M1444.5 17L-411.88 2985.01" stroke="#CAD2FC" stroke-width="2" stroke-miterlimit="10"/>
<path d="M1561.36 44.45L-277.83 2985.01" stroke="#CAD2FC" stroke-width="2" stroke-miterlimit="10"/>
<path d="M1695.13 44.45L-144.06 2985.01" stroke="#CAD2FC" stroke-width="2" stroke-miterlimit="10"/>
<path d="M1830.31 44.45L-18.16 2995.69" stroke="#CAD2FC" stroke-width="2" stroke-miterlimit="10"/>
<path d="M1961.24 44.45L122.04 2985.01" stroke="#CAD2FC" stroke-width="2" stroke-miterlimit="10"/>
<path d="M2096.71 44.45L257.52 2985.01" stroke="#CAD2FC" stroke-width="2" stroke-miterlimit="10"/>
<path d="M2230.37 44.45L926.16 2129.66L391.18 2985.01" stroke="#CAD2FC" stroke-width="2" stroke-miterlimit="10"/>
<path d="M2364.82 44.45L525.63 2985.01" stroke="#CAD2FC" stroke-width="2" stroke-miterlimit="10"/>
<path d="M2499.16 44.45L856.2 2671.28L659.69 2985.01" stroke="#CAD2FC" stroke-width="2" stroke-miterlimit="10"/>
<path d="M2639 44.45L863.5 2874.54L856 2882L788.33 2994.36" stroke="#CAD2FC" stroke-width="2" stroke-miterlimit="10"/>
<path d="M2764.55 44.45L925.36 2985.01" stroke="#CAD2FC" stroke-width="2" stroke-miterlimit="10"/>
<path d="M2896.63 44.45L1057.44 2985.01" stroke="#CAD2FC" stroke-width="2" stroke-miterlimit="10"/>
<path d="M3029.84 44.45L1190.65 2985.01" stroke="#CAD2FC" stroke-width="2" stroke-miterlimit="10"/>
<path d="M3166.47 44.45L1312.09 2999.69" stroke="#CAD2FC" stroke-width="2" stroke-miterlimit="10"/>
</g>
<defs>
<clipPath id="clip0_100_983">
<rect width="1440" height="2981" fill="white"/>
</clipPath>
</defs>
</svg>
