<svg width="360" height="1230" viewBox="0 0 360 1230" fill="none" xmlns="http://www.w3.org/2000/svg">
<g clip-path="url(#clip0_180_7111)">
<path fill-rule="evenodd" clip-rule="evenodd" d="M56.3461 1239.91L-708.926 16.2732L-708.273 15.8643L56.999 1239.5L56.3461 1239.91Z" fill="#CAD2FC"/>
<path fill-rule="evenodd" clip-rule="evenodd" d="M111.847 1245.41L-657.123 16.2732L-656.47 15.8643L112.5 1245L111.847 1245.41Z" fill="#CAD2FC"/>
<path fill-rule="evenodd" clip-rule="evenodd" d="M169.847 1258.91L-606.852 16.2731L-606.199 15.8644L170.5 1258.5L169.847 1258.91Z" fill="#CAD2FC"/>
<path fill-rule="evenodd" clip-rule="evenodd" d="M207.846 1236.91L-554.947 16.2731L-554.294 15.8644L208.5 1236.5L207.846 1236.91Z" fill="#CAD2FC"/>
<path fill-rule="evenodd" clip-rule="evenodd" d="M263 1243L-503.369 16.2732L-502.716 15.8645L263.653 1242.59L263 1243Z" fill="#CAD2FC"/>
<path fill-rule="evenodd" clip-rule="evenodd" d="M320.5 1252.5L-452.207 16.2731L-451.554 15.8644L321.153 1252.09L320.5 1252.5Z" fill="#CAD2FC"/>
<path fill-rule="evenodd" clip-rule="evenodd" d="M-400.344 17.5604L-399.691 17.1517L284.394 1112.5L366.651 1246.09L366 1246.5L283.741 1112.91L-400.344 17.5604Z" fill="#CAD2FC"/>
<path fill-rule="evenodd" clip-rule="evenodd" d="M362.225 1154.17L-348.971 16.2731L-348.318 15.8644L362.878 1153.76L362.225 1154.17Z" fill="#CAD2FC"/>
<path fill-rule="evenodd" clip-rule="evenodd" d="M412.348 1152.89L-298.051 16.2731L-297.398 15.8644L413.001 1152.48L412.348 1152.89Z" fill="#CAD2FC"/>
<path fill-rule="evenodd" clip-rule="evenodd" d="M461.729 1149.6L-246.613 16.2731L-245.96 15.8644L462.382 1149.2L461.729 1149.6Z" fill="#CAD2FC"/>
<path fill-rule="evenodd" clip-rule="evenodd" d="M513.045 1149.62L-195.297 16.2923L-194.644 15.8835L513.698 1149.21L513.045 1149.62Z" fill="#CAD2FC"/>
<path fill-rule="evenodd" clip-rule="evenodd" d="M564.539 1149.6L-143.803 16.2731L-143.15 15.8644L565.192 1149.2L564.539 1149.6Z" fill="#CAD2FC"/>
<path fill-rule="evenodd" clip-rule="evenodd" d="M616.1 1149.6L-92.2422 16.2731L-91.5891 15.8644L616.753 1149.2L616.1 1149.6Z" fill="#CAD2FC"/>
<path fill-rule="evenodd" clip-rule="evenodd" d="M667.887 1149.6L-40.4551 16.2731L-39.802 15.8644L668.54 1149.2L667.887 1149.6Z" fill="#CAD2FC"/>
<path fill-rule="evenodd" clip-rule="evenodd" d="M718.904 1149.6L-1 -1.99958L-0.34694 -2.40833L719.557 1149.19L718.904 1149.6Z" fill="#CAD2FC"/>
<path fill-rule="evenodd" clip-rule="evenodd" d="M770.257 1149.6L46.8477 -7.59125L47.5007 -8L770.91 1149.19L770.257 1149.6Z" fill="#CAD2FC"/>
<path fill-rule="evenodd" clip-rule="evenodd" d="M821.602 1149.6L101 -3.49994L101.653 -3.90869L822.255 1149.19L821.602 1149.6Z" fill="#CAD2FC"/>
<path fill-rule="evenodd" clip-rule="evenodd" d="M873.054 1149.39L152.348 -3.59125L153.001 -4L873.707 1148.98L873.054 1149.39Z" fill="#CAD2FC"/>
<path fill-rule="evenodd" clip-rule="evenodd" d="M923.172 1149.39L200 -8.00006L200.653 -8.40881L923.826 1148.98L923.172 1149.39Z" fill="#CAD2FC"/>
<path fill-rule="evenodd" clip-rule="evenodd" d="M974.261 1149.17L255.348 -1.09125L256.001 -1.5L974.914 1148.76L974.261 1149.17Z" fill="#CAD2FC"/>
<path fill-rule="evenodd" clip-rule="evenodd" d="M1026.11 1148.85L305.848 -3.59125L306.501 -4L1026.77 1148.44L1026.11 1148.85Z" fill="#CAD2FC"/>
<path fill-rule="evenodd" clip-rule="evenodd" d="M-669.316 1153.58L54.001 -3.49951L54.654 -3.09076L-668.663 1153.99L-669.316 1153.58Z" fill="#CAD2FC"/>
<path fill-rule="evenodd" clip-rule="evenodd" d="M-617.258 1152.18L105 -3.50012L105.653 -3.09137L-616.605 1152.59L-617.258 1152.18Z" fill="#CAD2FC"/>
<path fill-rule="evenodd" clip-rule="evenodd" d="M-564.988 1150.99L156.499 -3.5L157.152 -3.09125L-564.335 1151.4L-564.988 1150.99Z" fill="#CAD2FC"/>
<path fill-rule="evenodd" clip-rule="evenodd" d="M-513.035 1149.9L209.348 -5.90881L210.001 -5.50006L-512.382 1150.31L-513.035 1149.9Z" fill="#CAD2FC"/>
<path fill-rule="evenodd" clip-rule="evenodd" d="M-461.844 1149.9L259.499 -4L260.152 -3.59125L-461.191 1150.31L-461.844 1149.9Z" fill="#CAD2FC"/>
<path fill-rule="evenodd" clip-rule="evenodd" d="M-410.398 1150.07L312.499 -6.5L313.152 -6.09125L-409.745 1150.48L-410.398 1150.07Z" fill="#CAD2FC"/>
<path fill-rule="evenodd" clip-rule="evenodd" d="M-358.699 1149.9L362.347 -3.90875L363 -3.5L-358.046 1150.31L-358.699 1149.9Z" fill="#CAD2FC"/>
<path fill-rule="evenodd" clip-rule="evenodd" d="M-307.395 1149.91L400.948 16.5775L401.601 16.9863L-306.741 1150.31L-307.395 1149.91Z" fill="#CAD2FC"/>
<path fill-rule="evenodd" clip-rule="evenodd" d="M-255.986 1149.91L452.356 16.5775L453.009 16.9863L-255.333 1150.31L-255.986 1149.91Z" fill="#CAD2FC"/>
<path fill-rule="evenodd" clip-rule="evenodd" d="M-204.359 1149.91L503.983 16.5775L504.636 16.9863L-203.706 1150.31L-204.359 1149.91Z" fill="#CAD2FC"/>
<path fill-rule="evenodd" clip-rule="evenodd" d="M-152.84 1149.91L555.502 16.5775L556.155 16.9863L-152.187 1150.31L-152.84 1149.91Z" fill="#CAD2FC"/>
<path fill-rule="evenodd" clip-rule="evenodd" d="M-104.35 1154.02L607.567 16.5774L608.219 16.9866L-103.697 1154.43L-104.35 1154.02Z" fill="#CAD2FC"/>
<path fill-rule="evenodd" clip-rule="evenodd" d="M-50.3535 1149.91L657.993 16.5775L658.646 16.9863L-49.7005 1150.31L-50.3535 1149.91Z" fill="#CAD2FC"/>
<path fill-rule="evenodd" clip-rule="evenodd" d="M-0.152344 1153.09L710.167 16.5775L710.82 16.9863L0.500715 1153.5L-0.152344 1153.09Z" fill="#CAD2FC"/>
<path fill-rule="evenodd" clip-rule="evenodd" d="M761.645 16.5775L762.298 16.9863L-5.34694 1245.41L-6 1245L761.645 16.5775Z" fill="#CAD2FC"/>
<path fill-rule="evenodd" clip-rule="evenodd" d="M44.3477 1247.09L813.427 16.5775L814.08 16.9863L45.0007 1247.5L44.3477 1247.09Z" fill="#CAD2FC"/>
<path fill-rule="evenodd" clip-rule="evenodd" d="M865.165 16.5775L865.818 16.9863L233.053 1029.4L101.653 1239.91L101 1239.5L865.165 16.5775Z" fill="#CAD2FC"/>
<path fill-rule="evenodd" clip-rule="evenodd" d="M143.848 1253.59L919.024 16.5773L919.676 16.9869L144.5 1254L143.848 1253.59Z" fill="#CAD2FC"/>
<path fill-rule="evenodd" clip-rule="evenodd" d="M192.5 1258.5L966.378 16.5775L967.031 16.9863L193.153 1258.91L192.5 1258.5Z" fill="#CAD2FC"/>
<path fill-rule="evenodd" clip-rule="evenodd" d="M253 1242.59L1019.4 16.5775L1020.05 16.9863L253.653 1243L253 1242.59Z" fill="#CAD2FC"/>
<path fill-rule="evenodd" clip-rule="evenodd" d="M304.158 1241.19L1012.5 107.859L1013.15 108.267L304.811 1241.59L304.158 1241.19Z" fill="#CAD2FC"/>
</g>
<defs>
<clipPath id="clip0_180_7111">
<rect width="360" height="1230" fill="white"/>
</clipPath>
</defs>
</svg>
