<svg width="1141" height="310" viewBox="0 0 1141 310" fill="none" xmlns="http://www.w3.org/2000/svg">
<path d="M1140.71 273H926.71V206H1140.71" stroke="#474747" stroke-width="8" stroke-miterlimit="10"/>
<path d="M1073.21 167.5L1073.71 310L1049.71 274.5V204L1073.21 167.5Z" fill="#474747"/>
<path d="M939.71 167.5L899.21 231.5L894.71 237.5L939.71 309.5H1072.71V167.5H939.71Z" fill="#474747"/>
<path d="M904.55 245.84L832.21 131L695.43 130.5L630.19 235.08L493.72 235.85L426.67 129.71L293.84 128.69L226.41 232.9L96.24 233.93L4 88.8401" stroke="#474747" stroke-width="8" stroke-miterlimit="10"/>
<rect x="292" width="136" height="57" fill="#1C35C6"/>
<path d="M340.04 23.36L339.56 22.08L337.34 22.92L337.38 20.56H336L336.02 22.92L333.8 22.08L333.36 23.36L335.58 24.12L334.2 26L335.3 26.8L336.68 24.82L338.1 26.8L339.16 26L337.78 24.12L340.04 23.36ZM356.142 35L351.702 29.08L355.642 24.68H352.882L349.342 29.04H349.282V24.68H347.082V29.04H347.022L343.482 24.68H340.722L344.662 29.08L340.222 35H342.962L346.122 30.52L347.082 31.6V35H349.282V31.6L350.242 30.52L353.402 35H356.142ZM359.369 35V28.14H359.409L361.869 35H364.169L366.629 28.14H366.669V35H368.869V24.68H365.869L363.089 32.88H363.049L360.169 24.68H357.169V35H359.369ZM374.131 35L377.991 27.48H378.051V35H380.331V24.68H377.451L373.591 32.2H373.531V24.68H371.251V35H374.131ZM388.575 23.36L388.095 22.08L385.875 22.92L385.915 20.56H384.535L384.555 22.92L382.335 22.08L381.895 23.36L384.115 24.12L382.735 26L383.835 26.8L385.215 24.82L386.635 26.8L387.695 26L386.315 24.12L388.575 23.36Z" fill="white"/>
</svg>
