<svg width="1141" height="311" viewBox="0 0 1141 311" fill="none" xmlns="http://www.w3.org/2000/svg">
<path d="M1140.71 273H926.71V206H1140.71" stroke="#474747" stroke-width="8" stroke-miterlimit="10"/>
<path d="M1073.21 167.5L1073.71 310L1049.71 274.5V204L1073.21 167.5Z" fill="#474747"/>
<path d="M939.71 167.5L899.21 231.5L894.71 237.5L939.71 309.5H1072.71V167.5H939.71Z" fill="#474747"/>
<path d="M904.55 245.84L832.21 131L695.43 130.5L630.19 235.08L493.72 235.85L426.67 129.71L293.84 128.69L226.41 232.9L96.24 233.93L4 88.8401" stroke="#474747" stroke-width="8" stroke-miterlimit="10"/>
<rect x="4" width="14" height="19" fill="white"/>
<path d="M1140.71 273.16H926.71V206.16H1140.71" stroke="#474747" stroke-width="8" stroke-miterlimit="10"/>
<path d="M1073.21 167.66L1073.71 310.16L1049.71 274.66V204.16L1073.21 167.66Z" fill="#474747"/>
<path d="M939.71 167.66L899.21 231.66L894.71 237.66L939.71 309.66H1072.71V167.66H939.71Z" fill="#474747"/>
<path d="M904.55 246L832.21 131.16L695.43 130.66L630.19 235.24L493.72 236.01L426.67 129.87L293.84 128.85L226.41 233.06L96.24 234.09L4 89" stroke="#474747" stroke-width="8" stroke-miterlimit="10"/>
</svg>
