<svg width="1074" height="225" viewBox="0 0 1074 225" fill="none" xmlns="http://www.w3.org/2000/svg">
<path d="M1026.57 152.92L1004.7 117.3L982.94 152.92H1026.57Z" fill="black"/>
<path d="M1005 117.86L982.94 81.7L960.98 117.59L1005 117.86Z" fill="black"/>
<path d="M1004.8 188.54L982.93 152.92L961.01 188.56L1004.8 188.54Z" fill="black"/>
<path d="M1050.63 187.28L1026.6 152.94L1004.83 188.56L1050.63 187.28Z" fill="black"/>
<path d="M982.93 152.93L961.06 117.3L939.3 152.93H982.93Z" fill="black"/>
<path d="M1026.57 152.92L1004.91 188.87L982.94 152.92H1026.57Z" fill="black"/>
<path d="M1070.21 152.92L1048.34 117.3L1026.57 152.92H1070.21Z" fill="black"/>
<path d="M1070.21 152.92L1051.03 189.04L1025.38 152.52L1070.21 152.92Z" fill="black"/>
<path d="M1004.64 188.56L982.77 224.19L961.01 188.56H1004.64Z" fill="black"/>
<path d="M1051.73 117.23L1026.58 81.7L1004.57 117.43L1051.73 117.23Z" fill="black"/>
<path d="M1026.57 81.7L1004.7 117.32L982.94 81.7H1026.57Z" fill="black"/>
<path d="M1073.5 81.7L1051.17 117.32L1026.58 81.7H1073.5Z" fill="black"/>
<path d="M1004.62 117.59L982.74 153.21L960.98 117.59H1004.62Z" fill="black"/>
<path d="M1049.75 117.3L1026.53 153.16L1004.7 117.31L1049.75 117.3Z" fill="black"/>
<path d="M982.94 152.92L961.07 188.54L939.31 152.92H982.94Z" fill="black"/>
<path d="M1026.51 224.12L1004.64 188.49L982 224.12H1026.51Z" fill="black"/>
<path d="M1074 224.16L1052.14 188.49L1026.36 224.12L1074 224.16Z" fill="black"/>
<path d="M961.22 117.37L939.63 81.75L917.17 117.67L961.22 117.37Z" fill="black"/>
<path d="M961.16 188.54L939.29 152.92L917.53 188.54H961.16Z" fill="black"/>
<path d="M939.29 152.93L917.42 117.31L895.66 152.93H939.29Z" fill="black"/>
<path d="M961.17 188.54L939.98 224.19L917.6 188.36L961.17 188.54Z" fill="black"/>
<path d="M982.94 81.7L961.12 117.43L939.59 81.7H982.94Z" fill="black"/>
<path d="M961.06 117.31L939.25 153.14L917.43 117.31H961.06Z" fill="black"/>
<path d="M939.3 152.92L917.82 188.74L895.67 152.92H939.3Z" fill="black"/>
<path d="M982.87 224.12L961 188.5L940.08 224.12H982.87Z" fill="black"/>
<path d="M1053.2 188.74L1026.36 224.11L1004.6 188.49L1053.2 188.74Z" fill="black"/>
<path d="M1073.5 81.6599L1074 224.16L1050 188.66V118.16L1073.5 81.6599Z" fill="black"/>
<path d="M940 81.6599L899.5 145.66L895 151.66L940 223.66H1073V81.6599H940Z" fill="black"/>
<path d="M904.84 160L832.5 45.1599L695.72 44.6599L630.48 149.24L494.01 150.01L426.96 43.8699L294.13 42.8499L226.7 147.06L96.5301 148.09L4.29004 3" stroke="black" stroke-width="8" stroke-miterlimit="10"/>
</svg>
